<svg width="3392" height="1852" viewBox="0 0 3392 1852" fill="none" xmlns="http://www.w3.org/2000/svg">
<path d="M478.719 350.656C496.948 350.656 513.354 353.781 527.938 360.031C543.042 365.76 556.844 372.271 569.344 379.562C582.365 386.854 594.604 393.625 606.062 399.875C617.521 405.604 629.24 408.469 641.219 408.469C650.594 407.948 661.271 406.646 673.25 404.562C683.667 402.479 695.646 399.354 709.188 395.188C723.25 390.5 738.875 383.729 756.062 374.875C738.875 391.542 724.812 405.604 713.875 417.062C703.458 428 695.385 437.115 689.656 444.406C682.885 452.74 677.938 459.25 674.812 463.938C671.688 469.667 667 478.26 660.75 489.719C655.021 500.135 647.208 514.198 637.312 531.906C627.417 549.094 614.917 571.75 599.812 599.875C599.812 563.938 596.167 536.073 588.875 516.281C582.104 496.49 574.552 481.385 566.219 470.969C556.323 458.99 545.125 451.438 532.625 448.312C521.167 446.75 509.708 448.833 498.25 454.562C486.792 459.771 475.333 467.583 463.875 478C452.938 488.417 442.26 500.917 431.844 515.5C421.948 529.562 412.833 544.406 404.5 560.031C396.688 575.656 390.177 591.542 384.969 607.688C379.76 623.312 376.375 637.896 374.812 651.438C373.25 663.417 372.99 677.479 374.031 693.625C375.073 709.25 377.417 725.396 381.062 742.062C384.708 758.208 389.396 774.094 395.125 789.719C400.854 805.344 407.885 819.406 416.219 831.906C425.073 843.885 434.969 853.781 445.906 861.594C456.844 868.885 469.344 872.271 483.406 871.75C499.031 870.708 514.396 866.021 529.5 857.688C542.521 850.917 555.802 840.5 569.344 826.438C582.885 811.854 594.604 791.281 604.5 764.719L720.125 785.812C686.792 826.438 654.24 856.906 622.469 877.219C591.219 897.531 563.094 911.854 538.094 920.188C508.927 929.562 481.323 933.99 455.281 933.469C422.469 929.823 391.74 919.927 363.094 903.781C334.448 887.635 309.708 868.104 288.875 845.188C268.562 821.75 252.677 796.229 241.219 768.625C229.76 741.021 224.812 713.938 226.375 687.375C227.417 669.667 231.062 649.094 237.312 625.656C243.562 601.698 251.896 577.219 262.312 552.219C273.25 527.219 286.271 502.74 301.375 478.781C316.479 454.823 333.146 433.469 351.375 414.719C369.604 395.448 389.396 380.083 410.75 368.625C432.625 356.646 455.281 350.656 478.719 350.656ZM921.688 578C935.229 578 949.292 580.604 963.875 585.812C978.458 590.5 992.521 596.75 1006.06 604.562C1019.6 611.854 1031.84 619.927 1042.78 628.781C1054.24 637.115 1063.61 645.188 1070.91 653C1083.93 667.062 1092.78 686.073 1097.47 710.031C1102.68 733.469 1103.72 757.688 1100.59 782.688C1097.47 807.167 1090.18 830.344 1078.72 852.219C1067.26 874.094 1051.38 890.24 1031.06 900.656C1016.48 907.948 1002.16 913.677 988.094 917.844C974.031 922.01 960.49 925.135 947.469 927.219C934.448 929.302 922.208 930.344 910.75 930.344C899.292 930.344 889.396 930.083 881.062 929.562C865.438 928.521 849.031 923.052 831.844 913.156C815.177 903.26 799.292 891.021 784.188 876.438C769.604 861.854 757.104 845.969 746.688 828.781C736.271 811.073 730.021 794.406 727.938 778.781C724.812 757.427 724.292 735.031 726.375 711.594C728.458 688.156 736.01 666.542 749.031 646.75C762.573 626.958 782.885 610.552 809.969 597.531C837.573 584.51 874.812 578 921.688 578ZM895.906 881.125C901.635 882.167 909.448 880.865 919.344 877.219C929.24 873.052 938.875 866.542 948.25 857.688C958.146 848.833 966.74 837.635 974.031 824.094C981.844 810.031 986.531 793.104 988.094 773.312C989.656 754.042 989.656 736.333 988.094 720.188C987.052 704.042 984.708 689.979 981.062 678C977.417 665.5 973.25 655.344 968.562 647.531C963.875 639.719 958.927 634.25 953.719 631.125C944.865 626.438 934.188 622.792 921.688 620.188C909.188 617.062 898.51 617.583 889.656 621.75C885.49 623.833 880.281 628.26 874.031 635.031C867.781 641.802 861.531 650.396 855.281 660.812C849.031 670.708 843.302 682.167 838.094 695.188C833.406 708.208 830.021 721.75 827.938 735.812C825.854 749.875 825.333 764.979 826.375 781.125C827.938 797.271 831.323 812.635 836.531 827.219C841.74 841.281 849.031 853.521 858.406 863.938C868.302 873.833 880.802 879.562 895.906 881.125ZM1134.19 557.688C1146.17 556.646 1156.32 555.604 1164.66 554.562C1173.51 553.521 1180.8 552.479 1186.53 551.438C1193.3 550.396 1199.03 549.354 1203.72 548.312C1208.41 547.792 1213.61 546.75 1219.34 545.188C1224.55 544.146 1230.28 542.844 1236.53 541.281C1243.3 539.198 1250.59 536.854 1258.41 534.25L1253.72 633.469C1265.18 615.24 1278.46 601.438 1293.56 592.062C1308.67 582.167 1322.99 574.875 1336.53 570.188C1352.68 564.458 1368.82 561.073 1384.97 560.031C1401.64 560.552 1417 563.156 1431.06 567.844C1443.04 572.01 1455.02 578.521 1467 587.375C1479.5 596.229 1489.14 609.25 1495.91 626.438C1513.61 608.208 1531.06 594.146 1548.25 584.25C1565.96 573.833 1581.58 566.021 1595.12 560.812C1611.27 555.083 1626.38 551.698 1640.44 550.656C1659.19 550.135 1676.38 553.26 1692 560.031C1708.15 566.802 1722.21 575.396 1734.19 585.812C1746.17 595.708 1755.8 606.385 1763.09 617.844C1770.39 628.781 1774.55 638.417 1775.59 646.75C1777.16 658.208 1776.38 673.052 1773.25 691.281C1770.12 708.99 1766.48 727.219 1762.31 745.969C1758.15 764.198 1754.24 781.125 1750.59 796.75C1747.47 811.854 1746.17 822.531 1746.69 828.781C1748.25 833.99 1751.9 840.24 1757.62 847.531C1762.83 853.781 1770.39 861.594 1780.28 870.969C1790.7 879.823 1805.54 890.24 1824.81 902.219C1808.15 901.698 1793.3 901.177 1780.28 900.656C1767.78 900.135 1757.1 899.354 1748.25 898.312C1737.83 897.271 1728.72 896.49 1720.91 895.969C1714.66 895.969 1707.1 895.448 1698.25 894.406C1690.96 893.885 1681.32 893.104 1669.34 892.062C1657.89 891.021 1644.6 889.979 1629.5 888.938C1635.23 887.375 1639.92 884.51 1643.56 880.344C1647.21 875.656 1650.33 871.229 1652.94 867.062C1655.54 861.854 1657.62 856.125 1659.19 849.875C1660.23 844.667 1661.27 836.333 1662.31 824.875C1663.35 813.417 1664.14 800.396 1664.66 785.812C1665.7 771.229 1666.22 755.865 1666.22 739.719C1666.74 723.573 1666.74 708.208 1666.22 693.625C1665.7 679.042 1664.66 665.76 1663.09 653.781C1661.53 641.802 1659.45 632.688 1656.84 626.438C1654.76 621.75 1651.11 618.104 1645.91 615.5C1640.7 612.375 1634.71 610.552 1627.94 610.031C1621.17 608.99 1614.4 609.25 1607.62 610.812C1600.85 611.854 1594.86 613.938 1589.66 617.062C1584.97 620.708 1578.72 625.656 1570.91 631.906C1564.14 637.635 1555.28 645.448 1544.34 655.344C1533.41 665.24 1519.6 677.74 1502.94 692.844C1501.38 725.656 1500.07 752.219 1499.03 772.531C1498.51 792.323 1497.99 807.427 1497.47 817.844C1496.95 830.344 1496.69 838.938 1496.69 843.625C1496.17 847.792 1496.43 851.698 1497.47 855.344C1498.51 863.156 1501.64 870.448 1506.84 877.219C1500.59 875.656 1493.82 874.615 1486.53 874.094C1479.76 873.573 1473.51 873.052 1467.78 872.531C1461.01 872.01 1454.24 871.75 1447.47 871.75C1441.74 871.75 1435.49 872.01 1428.72 872.531C1422.99 873.052 1415.96 873.833 1407.62 874.875C1399.29 875.396 1390.18 876.177 1380.28 877.219C1384.45 874.615 1387.83 871.49 1390.44 867.844C1393.04 864.198 1395.12 860.812 1396.69 857.688C1398.77 854.042 1400.33 850.656 1401.38 847.531C1401.9 844.406 1402.94 836.854 1404.5 824.875C1406.06 812.375 1407.1 797.792 1407.62 781.125C1408.15 764.458 1408.15 747.01 1407.62 728.781C1407.1 710.031 1405.28 693.104 1402.16 678C1399.03 662.375 1394.08 649.615 1387.31 639.719C1381.06 629.823 1372.73 625.396 1362.31 626.438C1349.81 627.479 1337.05 630.604 1324.03 635.812C1313.09 639.979 1301.38 646.229 1288.88 654.562C1276.38 662.896 1264.66 674.094 1253.72 688.156C1251.64 727.219 1250.33 758.208 1249.81 781.125C1249.81 804.042 1250.07 821.49 1250.59 833.469C1251.11 847.531 1251.64 857.167 1252.16 862.375C1252.68 866.021 1253.98 869.667 1256.06 873.312C1257.62 876.438 1259.45 880.083 1261.53 884.25C1264.14 888.417 1267 892.323 1270.12 895.969L1145.91 889.719C1150.07 887.635 1153.72 885.031 1156.84 881.906C1159.97 878.26 1162.57 874.615 1164.66 870.969C1166.74 866.802 1168.82 862.635 1170.91 858.469C1172.47 854.823 1173.77 846.229 1174.81 832.688C1176.38 819.146 1177.68 803.26 1178.72 785.031C1179.76 766.281 1180.54 746.75 1181.06 726.438C1182.1 705.604 1182.62 686.333 1182.62 668.625C1183.15 650.396 1183.41 635.031 1183.41 622.531C1183.41 609.51 1183.15 601.698 1182.62 599.094C1181.06 593.885 1178.2 588.417 1174.03 582.688C1170.39 578.521 1165.44 574.094 1159.19 569.406C1152.94 564.198 1144.6 560.292 1134.19 557.688ZM2031.84 802.219C2046.43 802.219 2059.97 800.656 2072.47 797.531C2082.89 794.927 2092.78 790.76 2102.16 785.031C2112.05 778.781 2118.56 769.667 2121.69 757.688C2132.1 759.771 2140.96 761.594 2148.25 763.156C2155.54 764.198 2161.79 765.24 2167 766.281C2172.73 767.844 2177.68 768.885 2181.84 769.406C2186.01 770.448 2190.96 771.49 2196.69 772.531C2201.9 773.573 2208.15 774.875 2215.44 776.438C2223.25 777.479 2232.36 779.042 2242.78 781.125C2234.97 780.083 2226.9 780.865 2218.56 783.469C2210.75 786.073 2203.2 788.938 2195.91 792.062C2187.57 795.708 2179.76 800.135 2172.47 805.344C2167.78 808.469 2162.31 813.156 2156.06 819.406C2150.33 825.656 2142 831.646 2131.06 837.375C2120.12 843.104 2105.54 848.052 2087.31 852.219C2069.6 855.865 2046.69 857.167 2018.56 856.125C1984.71 855.083 1956.32 849.094 1933.41 838.156C1910.49 826.698 1892 812.896 1877.94 796.75C1863.88 780.083 1853.72 762.115 1847.47 742.844C1841.22 723.573 1837.83 705.604 1837.31 688.938C1836.79 672.271 1841.74 654.823 1852.16 636.594C1862.57 618.365 1877.16 601.698 1895.91 586.594C1915.18 571.49 1938.35 559.25 1965.44 549.875C1992.52 539.979 2022.21 535.031 2054.5 535.031C2073.25 535.031 2090.44 537.375 2106.06 542.062C2122.21 546.229 2136.79 551.958 2149.81 559.25C2163.35 566.542 2175.07 574.875 2184.97 584.25C2194.86 593.104 2203.2 602.219 2209.97 611.594C2216.74 621.49 2222.47 631.906 2227.16 642.844C2231.32 652.219 2234.71 662.896 2237.31 674.875C2239.92 686.854 2240.7 699.094 2239.66 711.594C2200.07 712.635 2168.04 713.417 2143.56 713.938C2119.6 714.458 2100.85 714.719 2087.31 714.719H2052.16H2025.59C2016.22 714.719 2003.98 714.979 1988.88 715.5C1973.77 716.021 1955.28 716.802 1933.41 717.844C1936.01 738.677 1942.52 754.823 1952.94 766.281C1963.88 777.219 1975.33 785.552 1987.31 791.281C2000.85 797.531 2015.7 801.177 2031.84 802.219ZM1961.53 661.594C1978.2 662.635 1992 663.417 2002.94 663.938C2014.4 664.458 2023.77 664.979 2031.06 665.5C2038.88 666.021 2045.12 666.281 2049.81 666.281H2069.34C2082.36 666.281 2106.58 665.5 2142 663.938C2140.44 641.021 2135.49 623.573 2127.16 611.594C2119.34 599.615 2111.01 590.76 2102.16 585.031C2091.74 578.781 2080.28 575.135 2067.78 574.094C2033.93 574.615 2008.67 581.646 1992 595.188C1975.85 608.729 1965.7 630.865 1961.53 661.594Z" fill="white"/>
<path d="M1314.75 936.781C1331.94 938.865 1347.56 940.427 1361.62 941.469C1375.17 942.51 1386.89 943.552 1396.78 944.594C1408.24 945.635 1418.4 946.417 1427.25 946.938C1436.62 946.938 1448.6 946.677 1463.19 946.156C1475.69 945.635 1491.57 944.854 1510.84 943.812C1530.11 942.771 1553.81 940.948 1581.94 938.344C1568.4 946.156 1557.2 953.969 1548.34 961.781C1540.01 969.594 1533.5 976.625 1528.81 982.875C1523.08 990.167 1518.92 997.458 1516.31 1004.75C1514.75 1014.65 1515.27 1033.92 1517.88 1062.56C1518.92 1074.54 1520.48 1089.39 1522.56 1107.09C1525.17 1124.28 1528.29 1144.85 1531.94 1168.81C1536.1 1192.25 1541.05 1219.33 1546.78 1250.06C1553.03 1280.79 1560.06 1315.69 1567.88 1354.75C1578.29 1325.06 1586.89 1298.76 1593.66 1275.84C1600.43 1252.41 1606.16 1232.35 1610.84 1215.69C1616.05 1196.94 1620.48 1180.27 1624.12 1165.69C1627.77 1150.58 1632.2 1131.05 1637.41 1107.09C1641.57 1086.78 1647.04 1060.48 1653.81 1028.19C1660.58 995.896 1668.92 956.052 1678.81 908.656L1706.94 912.562C1709.54 949.542 1712.15 982.094 1714.75 1010.22C1717.88 1038.34 1720.48 1062.3 1722.56 1082.09C1724.65 1105.01 1726.73 1124.8 1728.81 1141.47C1730.9 1156.57 1734.02 1174.02 1738.19 1193.81C1741.83 1210.48 1746.52 1231.05 1752.25 1255.53C1757.98 1279.49 1765.53 1306.57 1774.91 1336.78C1784.28 1299.8 1792.61 1266.73 1799.91 1237.56C1807.72 1208.4 1814.23 1182.61 1819.44 1160.22C1825.17 1137.82 1829.85 1118.55 1833.5 1102.41C1837.67 1086.26 1841.05 1072.72 1843.66 1061.78C1849.39 1035.74 1852.77 1018.29 1853.81 1009.44C1853.29 999.542 1850.95 989.906 1846.78 980.531C1843.14 972.198 1837.41 963.083 1829.59 953.188C1821.78 943.292 1810.32 933.656 1795.22 924.281C1826.99 925.323 1852.77 926.104 1872.56 926.625C1892.88 926.625 1909.02 926.625 1921 926.625H1952.25H1980.38C1990.79 926.625 2004.33 926.625 2021 926.625C2038.19 926.104 2060.06 925.323 2086.62 924.281C2063.71 936.26 2045.22 947.198 2031.16 957.094C2017.09 966.99 2006.16 975.323 1998.34 982.094C1988.97 990.427 1982.2 997.458 1978.03 1003.19C1973.86 1013.6 1967.09 1037.04 1957.72 1073.5C1953.55 1089.12 1948.86 1108.66 1943.66 1132.09C1938.45 1155.01 1932.2 1182.61 1924.91 1214.91C1918.14 1247.2 1910.32 1284.96 1901.47 1328.19C1892.61 1370.9 1882.72 1419.85 1871.78 1475.06L1736.62 1461L1678.81 1218.03C1669.96 1262.3 1662.93 1298.24 1657.72 1325.84C1652.51 1352.93 1648.6 1374.02 1646 1389.12C1642.88 1407.35 1641.05 1420.64 1640.53 1428.97C1640.01 1436.26 1639.49 1443.29 1638.97 1450.06C1638.45 1455.79 1637.67 1462.04 1636.62 1468.81C1636.1 1475.58 1635.32 1481.83 1634.28 1487.56H1496C1482.46 1428.19 1470.22 1375.84 1459.28 1330.53C1448.86 1284.7 1439.49 1244.59 1431.16 1210.22C1422.82 1175.84 1415.53 1146.68 1409.28 1122.72C1403.55 1098.76 1398.34 1078.71 1393.66 1062.56C1383.24 1025.06 1375.69 1001.89 1371 993.031C1367.35 988.865 1362.67 983.917 1356.94 978.188C1352.25 973.5 1346.52 967.771 1339.75 961C1332.46 953.708 1324.12 945.635 1314.75 936.781ZM2196 1136C2209.54 1136 2223.6 1138.6 2238.19 1143.81C2252.77 1148.5 2266.83 1154.75 2280.38 1162.56C2293.92 1169.85 2306.16 1177.93 2317.09 1186.78C2328.55 1195.11 2337.93 1203.19 2345.22 1211C2358.24 1225.06 2367.09 1244.07 2371.78 1268.03C2376.99 1291.47 2378.03 1315.69 2374.91 1340.69C2371.78 1365.17 2364.49 1388.34 2353.03 1410.22C2341.57 1432.09 2325.69 1448.24 2305.38 1458.66C2290.79 1465.95 2276.47 1471.68 2262.41 1475.84C2248.34 1480.01 2234.8 1483.14 2221.78 1485.22C2208.76 1487.3 2196.52 1488.34 2185.06 1488.34C2173.6 1488.34 2163.71 1488.08 2155.38 1487.56C2139.75 1486.52 2123.34 1481.05 2106.16 1471.16C2089.49 1461.26 2073.6 1449.02 2058.5 1434.44C2043.92 1419.85 2031.42 1403.97 2021 1386.78C2010.58 1369.07 2004.33 1352.41 2002.25 1336.78C1999.12 1315.43 1998.6 1293.03 2000.69 1269.59C2002.77 1246.16 2010.32 1224.54 2023.34 1204.75C2036.89 1184.96 2057.2 1168.55 2084.28 1155.53C2111.89 1142.51 2149.12 1136 2196 1136ZM2170.22 1439.12C2175.95 1440.17 2183.76 1438.86 2193.66 1435.22C2203.55 1431.05 2213.19 1424.54 2222.56 1415.69C2232.46 1406.83 2241.05 1395.64 2248.34 1382.09C2256.16 1368.03 2260.84 1351.1 2262.41 1331.31C2263.97 1312.04 2263.97 1294.33 2262.41 1278.19C2261.36 1262.04 2259.02 1247.98 2255.38 1236C2251.73 1223.5 2247.56 1213.34 2242.88 1205.53C2238.19 1197.72 2233.24 1192.25 2228.03 1189.12C2219.18 1184.44 2208.5 1180.79 2196 1178.19C2183.5 1175.06 2172.82 1175.58 2163.97 1179.75C2159.8 1181.83 2154.59 1186.26 2148.34 1193.03C2142.09 1199.8 2135.84 1208.4 2129.59 1218.81C2123.34 1228.71 2117.61 1240.17 2112.41 1253.19C2107.72 1266.21 2104.33 1279.75 2102.25 1293.81C2100.17 1307.88 2099.65 1322.98 2100.69 1339.12C2102.25 1355.27 2105.64 1370.64 2110.84 1385.22C2116.05 1399.28 2123.34 1411.52 2132.72 1421.94C2142.61 1431.83 2155.11 1437.56 2170.22 1439.12ZM2404.59 1111.78C2414.49 1112.3 2423.34 1112.56 2431.16 1112.56C2439.49 1112.04 2446.52 1111.52 2452.25 1111C2459.02 1110.48 2465.01 1109.96 2470.22 1109.44C2478.03 1108.4 2486.1 1107.09 2494.44 1105.53C2501.73 1104.49 2509.28 1103.19 2517.09 1101.62C2525.43 1099.54 2533.5 1097.2 2541.31 1094.59C2538.19 1102.41 2535.58 1109.18 2533.5 1114.91C2531.42 1120.64 2529.85 1125.58 2528.81 1129.75C2527.25 1134.44 2526.47 1138.34 2526.47 1141.47C2525.95 1145.11 2525.69 1149.54 2525.69 1154.75C2525.17 1163.6 2525.17 1177.93 2525.69 1197.72C2552.77 1174.28 2575.43 1156.05 2593.66 1143.03C2612.41 1130.01 2627.25 1119.85 2638.19 1112.56C2651.21 1104.23 2661.36 1098.76 2668.66 1096.16C2687.93 1093.03 2704.85 1097.46 2719.44 1109.44C2725.69 1114.65 2731.68 1121.68 2737.41 1130.53C2743.14 1138.86 2748.08 1150.06 2752.25 1164.12C2756.42 1178.19 2759.54 1195.11 2761.62 1214.91C2763.71 1234.18 2763.97 1257.35 2762.41 1284.44C2751.47 1285.48 2741.57 1286.52 2732.72 1287.56C2724.39 1288.6 2717.35 1289.39 2711.62 1289.91C2704.85 1290.95 2698.6 1291.47 2692.88 1291.47L2671.78 1293.81C2664.49 1294.85 2655.38 1295.9 2644.44 1296.94C2634.02 1297.46 2621.26 1298.5 2606.16 1300.06C2628.03 1282.35 2642.09 1266.99 2648.34 1253.97C2655.11 1240.43 2657.98 1229.23 2656.94 1220.38C2655.9 1210.48 2651.21 1201.89 2642.88 1194.59C2632.98 1188.86 2622.3 1186.78 2610.84 1188.34C2600.95 1189.39 2589.49 1193.81 2576.47 1201.62C2563.45 1209.44 2549.65 1224.02 2535.06 1245.38C2536.1 1278.71 2537.15 1306.31 2538.19 1328.19C2539.75 1350.06 2541.05 1367.77 2542.09 1381.31C2543.66 1396.94 2544.96 1409.18 2546 1418.03C2547.56 1425.84 2550.69 1434.18 2555.38 1443.03C2559.02 1450.32 2564.23 1458.4 2571 1467.25C2577.77 1476.1 2586.62 1484.96 2597.56 1493.81C2574.65 1492.77 2555.9 1492.77 2541.31 1493.81C2532.46 1494.33 2524.65 1494.85 2517.88 1495.38C2510.58 1496.42 2502.77 1497.46 2494.44 1498.5C2487.15 1499.54 2478.55 1500.58 2468.66 1501.62C2459.28 1503.19 2448.86 1504.75 2437.41 1506.31C2441.57 1500.58 2444.96 1493.81 2447.56 1486C2450.17 1478.71 2452.25 1471.68 2453.81 1464.91C2455.9 1457.09 2457.46 1449.02 2458.5 1440.69C2459.02 1433.4 2459.28 1422.46 2459.28 1407.88C2459.8 1393.29 2459.54 1376.89 2458.5 1358.66C2457.98 1339.91 2457.2 1320.64 2456.16 1300.84C2455.11 1280.53 2453.81 1261.52 2452.25 1243.81C2450.69 1226.1 2448.86 1210.74 2446.78 1197.72C2445.22 1184.18 2443.4 1174.8 2441.31 1169.59C2438.71 1163.34 2435.58 1157.09 2431.94 1150.84C2428.81 1145.11 2424.91 1139.12 2420.22 1132.88C2415.53 1126.1 2410.32 1119.07 2404.59 1111.78ZM2787.41 922.719C2793.14 925.323 2799.91 927.146 2807.72 928.188C2816.05 929.229 2823.86 929.75 2831.16 929.75C2840.01 929.75 2849.12 929.49 2858.5 928.969C2867.88 928.448 2879.33 927.406 2892.88 925.844C2903.81 924.802 2917.35 923.5 2933.5 921.938C2949.65 920.375 2967.61 918.292 2987.41 915.688C2980.11 919.333 2973.86 923.24 2968.66 927.406C2963.45 931.573 2959.02 935.74 2955.38 939.906C2951.21 944.594 2947.82 949.281 2945.22 953.969C2941.57 960.219 2936.62 971.156 2930.38 986.781C2924.65 1001.89 2918.66 1018.81 2912.41 1037.56C2906.68 1056.31 2901.47 1075.32 2896.78 1094.59C2892.61 1113.86 2890.27 1130.27 2889.75 1143.81C2889.23 1155.27 2888.71 1168.29 2888.19 1182.88C2887.67 1195.38 2887.15 1210.74 2886.62 1228.97C2886.1 1247.2 2885.58 1268.03 2885.06 1291.47C2922.56 1264.39 2951.47 1242.77 2971.78 1226.62C2992.09 1209.96 3006.94 1197.2 3016.31 1188.34C3027.25 1178.45 3033.76 1171.42 3035.84 1167.25C3035.32 1164.12 3034.02 1160.74 3031.94 1157.09C3029.33 1153.97 3025.69 1150.32 3021 1146.16C3016.31 1141.99 3009.28 1137.3 2999.91 1132.09C3013.45 1133.66 3025.17 1134.7 3035.06 1135.22C3045.48 1135.74 3054.33 1136.26 3061.62 1136.78C3069.96 1137.3 3077.25 1137.3 3083.5 1136.78C3090.27 1136.78 3098.6 1136.52 3108.5 1136C3125.69 1135.48 3152.25 1134.7 3188.19 1133.66C3153.29 1151.89 3125.69 1167.51 3105.38 1180.53C3093.92 1187.82 3083.76 1194.59 3074.91 1200.84C3066.05 1207.61 3056.94 1214.65 3047.56 1221.94C3039.23 1228.19 3029.59 1235.48 3018.66 1243.81C3008.24 1252.15 2997.82 1261 2987.41 1270.38C3005.64 1300.06 3021.52 1324.54 3035.06 1343.81C3049.12 1363.08 3060.84 1378.71 3070.22 1390.69C3081.16 1404.75 3090.79 1415.95 3099.12 1424.28C3107.46 1432.09 3118.4 1440.95 3131.94 1450.84C3143.4 1459.7 3158.24 1470.11 3176.47 1482.09C3195.22 1493.55 3217.88 1506.83 3244.44 1521.94C3230.9 1519.33 3217.88 1517.51 3205.38 1516.47C3192.88 1515.95 3182.2 1515.95 3173.34 1516.47C3162.41 1516.99 3152.51 1518.03 3143.66 1519.59C3134.28 1521.68 3123.86 1524.28 3112.41 1527.41C3102.51 1530.01 3090.79 1533.4 3077.25 1537.56C3064.23 1542.25 3049.91 1548.24 3034.28 1555.53C3044.18 1548.24 3051.47 1541.21 3056.16 1534.44C3061.36 1528.19 3065.01 1522.98 3067.09 1518.81C3069.18 1513.6 3069.96 1509.18 3069.44 1505.53C3066.83 1500.32 3060.84 1489.65 3051.47 1473.5C3042.61 1459.96 3029.59 1440.17 3012.41 1414.12C2995.22 1388.08 2970.74 1352.67 2938.97 1307.88C2937.41 1308.4 2934.8 1309.96 2931.16 1312.56C2928.03 1315.17 2923.34 1318.81 2917.09 1323.5C2910.84 1327.67 2902.51 1333.92 2892.09 1342.25L2913.19 1478.97C2908.5 1481.05 2903.29 1482.88 2897.56 1484.44C2892.35 1486 2887.41 1487.3 2882.72 1488.34C2876.99 1489.91 2871.26 1490.95 2865.53 1491.47C2859.8 1491.99 2853.03 1493.03 2845.22 1494.59C2838.45 1495.64 2830.38 1496.94 2821 1498.5C2811.62 1500.58 2800.95 1502.93 2788.97 1505.53C2795.74 1500.84 2801.21 1495.38 2805.38 1489.12C2809.54 1483.4 2812.93 1477.93 2815.53 1472.72C2818.14 1466.99 2820.48 1461 2822.56 1454.75C2823.6 1449.54 2824.65 1436 2825.69 1414.12C2827.25 1392.25 2828.55 1366.21 2829.59 1336C2830.64 1305.27 2831.42 1272.46 2831.94 1237.56C2832.98 1202.67 2833.5 1169.85 2833.5 1139.12C2833.5 1107.88 2833.24 1080.79 2832.72 1057.88C2832.2 1034.44 2831.16 1019.33 2829.59 1012.56C2826.99 1004.23 2823.86 995.375 2820.22 986C2817.09 977.667 2812.67 968.292 2806.94 957.875C2801.73 946.938 2795.22 935.219 2787.41 922.719Z" fill="white"/>
</svg>
