<svg width="1336" height="804" viewBox="0 0 1336 804" fill="none" xmlns="http://www.w3.org/2000/svg">
<path d="M275.342 183.807C281.221 183.807 286.512 184.814 291.215 186.83C296.086 188.678 300.537 190.777 304.568 193.129C308.768 195.48 312.715 197.664 316.41 199.68C320.105 201.527 323.885 202.451 327.748 202.451C330.771 202.283 334.215 201.863 338.078 201.191C341.438 200.52 345.301 199.512 349.668 198.168C354.203 196.656 359.242 194.473 364.785 191.617C359.242 196.992 354.707 201.527 351.18 205.223C347.82 208.75 345.217 211.689 343.369 214.041C341.186 216.729 339.59 218.828 338.582 220.34C337.574 222.188 336.062 224.959 334.047 228.654C332.199 232.014 329.68 236.549 326.488 242.26C323.297 247.803 319.266 255.109 314.395 264.18C314.395 252.59 313.219 243.604 310.867 237.221C308.684 230.838 306.248 225.967 303.561 222.607C300.369 218.744 296.758 216.309 292.727 215.301C289.031 214.797 285.336 215.469 281.641 217.316C277.945 218.996 274.25 221.516 270.555 224.875C267.027 228.234 263.584 232.266 260.225 236.969C257.033 241.504 254.094 246.291 251.406 251.33C248.887 256.369 246.787 261.492 245.107 266.699C243.428 271.738 242.336 276.441 241.832 280.809C241.328 284.672 241.244 289.207 241.58 294.414C241.916 299.453 242.672 304.66 243.848 310.035C245.023 315.242 246.535 320.365 248.383 325.404C250.23 330.443 252.498 334.979 255.186 339.01C258.041 342.873 261.232 346.064 264.76 348.584C268.287 350.936 272.318 352.027 276.854 351.859C281.893 351.523 286.848 350.012 291.719 347.324C295.918 345.141 300.201 341.781 304.568 337.246C308.936 332.543 312.715 325.908 315.906 317.342L353.195 324.145C342.445 337.246 331.947 347.072 321.701 353.623C311.623 360.174 302.553 364.793 294.49 367.48C285.084 370.504 276.182 371.932 267.783 371.764C257.201 370.588 247.291 367.396 238.053 362.189C228.814 356.982 220.836 350.684 214.117 343.293C207.566 335.734 202.443 327.504 198.748 318.602C195.053 309.699 193.457 300.965 193.961 292.398C194.297 286.688 195.473 280.053 197.488 272.494C199.504 264.768 202.191 256.873 205.551 248.811C209.078 240.748 213.277 232.854 218.148 225.127C223.02 217.4 228.395 210.514 234.273 204.467C240.152 198.252 246.535 193.297 253.422 189.602C260.477 185.738 267.783 183.807 275.342 183.807ZM418.199 257.125C422.566 257.125 427.102 257.965 431.805 259.645C436.508 261.156 441.043 263.172 445.41 265.691C449.777 268.043 453.725 270.646 457.252 273.502C460.947 276.189 463.971 278.793 466.322 281.312C470.521 285.848 473.377 291.979 474.889 299.705C476.568 307.264 476.904 315.074 475.896 323.137C474.889 331.031 472.537 338.506 468.842 345.561C465.146 352.615 460.023 357.822 453.473 361.182C448.77 363.533 444.15 365.381 439.615 366.725C435.08 368.068 430.713 369.076 426.514 369.748C422.314 370.42 418.367 370.756 414.672 370.756C410.977 370.756 407.785 370.672 405.098 370.504C400.059 370.168 394.768 368.404 389.225 365.213C383.85 362.021 378.727 358.074 373.855 353.371C369.152 348.668 365.121 343.545 361.762 338.002C358.402 332.291 356.387 326.916 355.715 321.877C354.707 314.99 354.539 307.768 355.211 300.209C355.883 292.65 358.318 285.68 362.518 279.297C366.885 272.914 373.436 267.623 382.17 263.424C391.072 259.225 403.082 257.125 418.199 257.125ZM409.885 354.883C411.732 355.219 414.252 354.799 417.443 353.623C420.635 352.279 423.742 350.18 426.766 347.324C429.957 344.469 432.729 340.857 435.08 336.49C437.6 331.955 439.111 326.496 439.615 320.113C440.119 313.898 440.119 308.188 439.615 302.98C439.279 297.773 438.523 293.238 437.348 289.375C436.172 285.344 434.828 282.068 433.316 279.549C431.805 277.029 430.209 275.266 428.529 274.258C425.674 272.746 422.23 271.57 418.199 270.73C414.168 269.723 410.725 269.891 407.869 271.234C406.525 271.906 404.846 273.334 402.83 275.518C400.814 277.701 398.799 280.473 396.783 283.832C394.768 287.023 392.92 290.719 391.24 294.918C389.729 299.117 388.637 303.484 387.965 308.02C387.293 312.555 387.125 317.426 387.461 322.633C387.965 327.84 389.057 332.795 390.736 337.498C392.416 342.033 394.768 345.98 397.791 349.34C400.982 352.531 405.014 354.379 409.885 354.883ZM486.73 250.574C490.594 250.238 493.869 249.902 496.557 249.566C499.412 249.23 501.764 248.895 503.611 248.559C505.795 248.223 507.643 247.887 509.154 247.551C510.666 247.383 512.346 247.047 514.193 246.543C515.873 246.207 517.721 245.787 519.736 245.283C521.92 244.611 524.271 243.855 526.791 243.016L525.279 275.014C528.975 269.135 533.258 264.684 538.129 261.66C543 258.469 547.619 256.117 551.986 254.605C557.193 252.758 562.4 251.666 567.607 251.33C572.982 251.498 577.938 252.338 582.473 253.85C586.336 255.193 590.199 257.293 594.062 260.148C598.094 263.004 601.201 267.203 603.385 272.746C609.096 266.867 614.723 262.332 620.266 259.141C625.977 255.781 631.016 253.262 635.383 251.582C640.59 249.734 645.461 248.643 649.996 248.307C656.043 248.139 661.586 249.146 666.625 251.33C671.832 253.514 676.367 256.285 680.23 259.645C684.094 262.836 687.201 266.279 689.553 269.975C691.904 273.502 693.248 276.609 693.584 279.297C694.088 282.992 693.836 287.779 692.828 293.658C691.82 299.369 690.645 305.248 689.301 311.295C687.957 317.174 686.697 322.633 685.521 327.672C684.514 332.543 684.094 335.986 684.262 338.002C684.766 339.682 685.941 341.697 687.789 344.049C689.469 346.064 691.904 348.584 695.096 351.607C698.455 354.463 703.242 357.822 709.457 361.686C704.082 361.518 699.295 361.35 695.096 361.182C691.064 361.014 687.621 360.762 684.766 360.426C681.406 360.09 678.467 359.838 675.947 359.67C673.932 359.67 671.496 359.502 668.641 359.166C666.289 358.998 663.182 358.746 659.318 358.41C655.623 358.074 651.34 357.738 646.469 357.402C648.316 356.898 649.828 355.975 651.004 354.631C652.18 353.119 653.188 351.691 654.027 350.348C654.867 348.668 655.539 346.82 656.043 344.805C656.379 343.125 656.715 340.438 657.051 336.742C657.387 333.047 657.639 328.848 657.807 324.145C658.143 319.441 658.311 314.486 658.311 309.279C658.479 304.072 658.479 299.117 658.311 294.414C658.143 289.711 657.807 285.428 657.303 281.564C656.799 277.701 656.127 274.762 655.287 272.746C654.615 271.234 653.439 270.059 651.76 269.219C650.08 268.211 648.148 267.623 645.965 267.455C643.781 267.119 641.598 267.203 639.414 267.707C637.23 268.043 635.299 268.715 633.619 269.723C632.107 270.898 630.092 272.494 627.572 274.51C625.389 276.357 622.533 278.877 619.006 282.068C615.479 285.26 611.027 289.291 605.652 294.162C605.148 304.744 604.729 313.311 604.393 319.861C604.225 326.244 604.057 331.115 603.889 334.475C603.721 338.506 603.637 341.277 603.637 342.789C603.469 344.133 603.553 345.393 603.889 346.568C604.225 349.088 605.232 351.439 606.912 353.623C604.896 353.119 602.713 352.783 600.361 352.615C598.178 352.447 596.162 352.279 594.314 352.111C592.131 351.943 589.947 351.859 587.764 351.859C585.916 351.859 583.9 351.943 581.717 352.111C579.869 352.279 577.602 352.531 574.914 352.867C572.227 353.035 569.287 353.287 566.096 353.623C567.439 352.783 568.531 351.775 569.371 350.6C570.211 349.424 570.883 348.332 571.387 347.324C572.059 346.148 572.562 345.057 572.898 344.049C573.066 343.041 573.402 340.605 573.906 336.742C574.41 332.711 574.746 328.008 574.914 322.633C575.082 317.258 575.082 311.631 574.914 305.752C574.746 299.705 574.158 294.246 573.15 289.375C572.143 284.336 570.547 280.221 568.363 277.029C566.348 273.838 563.66 272.41 560.301 272.746C556.27 273.082 552.154 274.09 547.955 275.77C544.428 277.113 540.648 279.129 536.617 281.816C532.586 284.504 528.807 288.115 525.279 292.65C524.607 305.248 524.188 315.242 524.02 322.633C524.02 330.023 524.104 335.65 524.271 339.514C524.439 344.049 524.607 347.156 524.775 348.836C524.943 350.012 525.363 351.188 526.035 352.363C526.539 353.371 527.127 354.547 527.799 355.891C528.639 357.234 529.562 358.494 530.57 359.67L490.51 357.654C491.854 356.982 493.029 356.143 494.037 355.135C495.045 353.959 495.885 352.783 496.557 351.607C497.229 350.264 497.9 348.92 498.572 347.576C499.076 346.4 499.496 343.629 499.832 339.262C500.336 334.895 500.756 329.771 501.092 323.893C501.428 317.846 501.68 311.547 501.848 304.996C502.184 298.277 502.352 292.062 502.352 286.352C502.52 280.473 502.604 275.518 502.604 271.486C502.604 267.287 502.52 264.768 502.352 263.928C501.848 262.248 500.924 260.484 499.58 258.637C498.404 257.293 496.809 255.865 494.793 254.354C492.777 252.674 490.09 251.414 486.73 250.574ZM776.225 329.436C780.928 329.436 785.295 328.932 789.326 327.924C792.686 327.084 795.877 325.74 798.9 323.893C802.092 321.877 804.191 318.938 805.199 315.074C808.559 315.746 811.414 316.334 813.766 316.838C816.117 317.174 818.133 317.51 819.812 317.846C821.66 318.35 823.256 318.686 824.6 318.854C825.943 319.189 827.539 319.525 829.387 319.861C831.066 320.197 833.082 320.617 835.434 321.121C837.953 321.457 840.893 321.961 844.252 322.633C841.732 322.297 839.129 322.549 836.441 323.389C833.922 324.229 831.486 325.152 829.135 326.16C826.447 327.336 823.928 328.764 821.576 330.443C820.064 331.451 818.301 332.963 816.285 334.979C814.438 336.994 811.75 338.926 808.223 340.773C804.695 342.621 799.992 344.217 794.113 345.561C788.402 346.736 781.012 347.156 771.941 346.82C761.023 346.484 751.869 344.553 744.479 341.025C737.088 337.33 731.125 332.879 726.59 327.672C722.055 322.297 718.779 316.502 716.764 310.287C714.748 304.072 713.656 298.277 713.488 292.902C713.32 287.527 714.916 281.9 718.275 276.021C721.635 270.143 726.338 264.768 732.385 259.896C738.6 255.025 746.074 251.078 754.809 248.055C763.543 244.863 773.117 243.268 783.531 243.268C789.578 243.268 795.121 244.023 800.16 245.535C805.367 246.879 810.07 248.727 814.27 251.078C818.637 253.43 822.416 256.117 825.607 259.141C828.799 261.996 831.486 264.936 833.67 267.959C835.854 271.15 837.701 274.51 839.213 278.037C840.557 281.061 841.648 284.504 842.488 288.367C843.328 292.23 843.58 296.178 843.244 300.209C830.479 300.545 820.148 300.797 812.254 300.965C804.527 301.133 798.48 301.217 794.113 301.217H782.775H774.209C771.186 301.217 767.238 301.301 762.367 301.469C757.496 301.637 751.533 301.889 744.479 302.225C745.318 308.943 747.418 314.15 750.777 317.846C754.305 321.373 758 324.061 761.863 325.908C766.23 327.924 771.018 329.1 776.225 329.436ZM753.549 284.084C758.924 284.42 763.375 284.672 766.902 284.84C770.598 285.008 773.621 285.176 775.973 285.344C778.492 285.512 780.508 285.596 782.02 285.596H788.318C792.518 285.596 800.328 285.344 811.75 284.84C811.246 277.449 809.65 271.822 806.963 267.959C804.443 264.096 801.756 261.24 798.9 259.393C795.541 257.377 791.846 256.201 787.814 255.865C776.896 256.033 768.75 258.301 763.375 262.668C758.168 267.035 754.893 274.174 753.549 284.084Z" fill="white"/>
<path d="M544.859 439.877C550.402 440.549 555.441 441.053 559.977 441.389C564.344 441.725 568.123 442.061 571.314 442.396C575.01 442.732 578.285 442.984 581.141 443.152C584.164 443.152 588.027 443.068 592.73 442.9C596.762 442.732 601.885 442.48 608.1 442.145C614.314 441.809 621.957 441.221 631.027 440.381C626.66 442.9 623.049 445.42 620.193 447.939C617.506 450.459 615.406 452.727 613.895 454.742C612.047 457.094 610.703 459.445 609.863 461.797C609.359 464.988 609.527 471.203 610.367 480.441C610.703 484.305 611.207 489.092 611.879 494.803C612.719 500.346 613.727 506.98 614.902 514.707C616.246 522.266 617.842 531 619.689 540.91C621.705 550.82 623.973 562.074 626.492 574.672C629.852 565.098 632.623 556.615 634.807 549.225C636.99 541.666 638.838 535.199 640.35 529.824C642.029 523.777 643.457 518.402 644.633 513.699C645.809 508.828 647.236 502.529 648.916 494.803C650.26 488.252 652.023 479.77 654.207 469.355C656.391 458.941 659.078 446.092 662.27 430.807L671.34 432.066C672.18 443.992 673.02 454.49 673.859 463.561C674.867 472.631 675.707 480.357 676.379 486.74C677.051 494.131 677.723 500.514 678.395 505.889C679.066 510.76 680.074 516.387 681.418 522.77C682.594 528.145 684.105 534.779 685.953 542.674C687.801 550.4 690.236 559.135 693.26 568.877C696.283 556.951 698.971 546.285 701.322 536.879C703.842 527.473 705.941 519.158 707.621 511.936C709.469 504.713 710.98 498.498 712.156 493.291C713.5 488.084 714.592 483.717 715.432 480.189C717.279 471.791 718.371 466.164 718.707 463.309C718.539 460.117 717.783 457.01 716.439 453.986C715.264 451.299 713.416 448.359 710.896 445.168C708.377 441.977 704.682 438.869 699.811 435.846C710.057 436.182 718.371 436.434 724.754 436.602C731.305 436.602 736.512 436.602 740.375 436.602H750.453H759.523C762.883 436.602 767.25 436.602 772.625 436.602C778.168 436.434 785.223 436.182 793.789 435.846C786.398 439.709 780.436 443.236 775.9 446.428C771.365 449.619 767.838 452.307 765.318 454.49C762.295 457.178 760.111 459.445 758.768 461.293C757.424 464.652 755.24 472.211 752.217 483.969C750.873 489.008 749.361 495.307 747.682 502.865C746.002 510.256 743.986 519.158 741.635 529.572C739.451 539.986 736.932 552.164 734.076 566.105C731.221 579.879 728.029 595.668 724.502 613.473L680.914 608.938L662.27 530.58C659.414 544.857 657.146 556.447 655.467 565.35C653.787 574.084 652.527 580.887 651.688 585.758C650.68 591.637 650.092 595.92 649.924 598.607C649.756 600.959 649.588 603.227 649.42 605.41C649.252 607.258 649 609.273 648.664 611.457C648.496 613.641 648.244 615.656 647.908 617.504H603.312C598.945 598.355 594.998 581.475 591.471 566.861C588.111 552.08 585.088 539.146 582.4 528.061C579.713 516.975 577.361 507.568 575.346 499.842C573.498 492.115 571.818 485.648 570.307 480.441C566.947 468.348 564.512 460.873 563 458.018C561.824 456.674 560.312 455.078 558.465 453.23C556.953 451.719 555.105 449.871 552.922 447.688C550.57 445.336 547.883 442.732 544.859 439.877ZM829.062 504.125C833.43 504.125 837.965 504.965 842.668 506.645C847.371 508.156 851.906 510.172 856.273 512.691C860.641 515.043 864.588 517.646 868.115 520.502C871.811 523.189 874.834 525.793 877.186 528.312C881.385 532.848 884.24 538.979 885.752 546.705C887.432 554.264 887.768 562.074 886.76 570.137C885.752 578.031 883.4 585.506 879.705 592.561C876.01 599.615 870.887 604.822 864.336 608.182C859.633 610.533 855.014 612.381 850.479 613.725C845.943 615.068 841.576 616.076 837.377 616.748C833.178 617.42 829.23 617.756 825.535 617.756C821.84 617.756 818.648 617.672 815.961 617.504C810.922 617.168 805.631 615.404 800.088 612.213C794.713 609.021 789.59 605.074 784.719 600.371C780.016 595.668 775.984 590.545 772.625 585.002C769.266 579.291 767.25 573.916 766.578 568.877C765.57 561.99 765.402 554.768 766.074 547.209C766.746 539.65 769.182 532.68 773.381 526.297C777.748 519.914 784.299 514.623 793.033 510.424C801.936 506.225 813.945 504.125 829.062 504.125ZM820.748 601.883C822.596 602.219 825.115 601.799 828.307 600.623C831.498 599.279 834.605 597.18 837.629 594.324C840.82 591.469 843.592 587.857 845.943 583.49C848.463 578.955 849.975 573.496 850.479 567.113C850.982 560.898 850.982 555.188 850.479 549.98C850.143 544.773 849.387 540.238 848.211 536.375C847.035 532.344 845.691 529.068 844.18 526.549C842.668 524.029 841.072 522.266 839.393 521.258C836.537 519.746 833.094 518.57 829.062 517.73C825.031 516.723 821.588 516.891 818.732 518.234C817.389 518.906 815.709 520.334 813.693 522.518C811.678 524.701 809.662 527.473 807.646 530.832C805.631 534.023 803.783 537.719 802.104 541.918C800.592 546.117 799.5 550.484 798.828 555.02C798.156 559.555 797.988 564.426 798.324 569.633C798.828 574.84 799.92 579.795 801.6 584.498C803.279 589.033 805.631 592.98 808.654 596.34C811.846 599.531 815.877 601.379 820.748 601.883ZM896.334 496.314C899.525 496.482 902.381 496.566 904.9 496.566C907.588 496.398 909.855 496.23 911.703 496.062C913.887 495.895 915.818 495.727 917.498 495.559C920.018 495.223 922.621 494.803 925.309 494.299C927.66 493.963 930.096 493.543 932.615 493.039C935.303 492.367 937.906 491.611 940.426 490.771C939.418 493.291 938.578 495.475 937.906 497.322C937.234 499.17 936.73 500.766 936.395 502.109C935.891 503.621 935.639 504.881 935.639 505.889C935.471 507.064 935.387 508.492 935.387 510.172C935.219 513.027 935.219 517.646 935.387 524.029C944.121 516.471 951.428 510.592 957.307 506.393C963.354 502.193 968.141 498.918 971.668 496.566C975.867 493.879 979.143 492.115 981.494 491.275C987.709 490.268 993.168 491.695 997.871 495.559C999.887 497.238 1001.82 499.506 1003.67 502.361C1005.51 505.049 1007.11 508.66 1008.45 513.195C1009.8 517.73 1010.8 523.189 1011.48 529.572C1012.15 535.787 1012.23 543.262 1011.73 551.996C1008.2 552.332 1005.01 552.668 1002.15 553.004C999.467 553.34 997.199 553.592 995.352 553.76C993.168 554.096 991.152 554.264 989.305 554.264L982.502 555.02C980.15 555.355 977.211 555.691 973.684 556.027C970.324 556.195 966.209 556.531 961.338 557.035C968.393 551.324 972.928 546.369 974.943 542.17C977.127 537.803 978.051 534.191 977.715 531.336C977.379 528.145 975.867 525.373 973.18 523.021C969.988 521.174 966.545 520.502 962.85 521.006C959.658 521.342 955.963 522.77 951.764 525.289C947.564 527.809 943.113 532.512 938.41 539.398C938.746 550.148 939.082 559.051 939.418 566.105C939.922 573.16 940.342 578.871 940.678 583.238C941.182 588.277 941.602 592.225 941.938 595.08C942.441 597.6 943.449 600.287 944.961 603.143C946.137 605.494 947.816 608.098 950 610.953C952.184 613.809 955.039 616.664 958.566 619.52C951.176 619.184 945.129 619.184 940.426 619.52C937.57 619.688 935.051 619.855 932.867 620.023C930.516 620.359 927.996 620.695 925.309 621.031C922.957 621.367 920.186 621.703 916.994 622.039C913.971 622.543 910.611 623.047 906.916 623.551C908.26 621.703 909.352 619.52 910.191 617C911.031 614.648 911.703 612.381 912.207 610.197C912.879 607.678 913.383 605.074 913.719 602.387C913.887 600.035 913.971 596.508 913.971 591.805C914.139 587.102 914.055 581.811 913.719 575.932C913.551 569.885 913.299 563.67 912.963 557.287C912.627 550.736 912.207 544.605 911.703 538.895C911.199 533.184 910.611 528.229 909.939 524.029C909.436 519.662 908.848 516.639 908.176 514.959C907.336 512.943 906.328 510.928 905.152 508.912C904.145 507.064 902.885 505.133 901.373 503.117C899.861 500.934 898.182 498.666 896.334 496.314ZM1019.79 435.342C1021.64 436.182 1023.82 436.77 1026.34 437.105C1029.03 437.441 1031.55 437.609 1033.9 437.609C1036.76 437.609 1039.7 437.525 1042.72 437.357C1045.74 437.189 1049.44 436.854 1053.8 436.35C1057.33 436.014 1061.7 435.594 1066.91 435.09C1072.11 434.586 1077.91 433.914 1084.29 433.074C1081.94 434.25 1079.92 435.51 1078.24 436.854C1076.56 438.197 1075.14 439.541 1073.96 440.885C1072.62 442.396 1071.53 443.908 1070.69 445.42C1069.51 447.436 1067.91 450.963 1065.9 456.002C1064.05 460.873 1062.12 466.332 1060.1 472.379C1058.26 478.426 1056.58 484.557 1055.06 490.771C1053.72 496.986 1052.96 502.277 1052.8 506.645C1052.63 510.34 1052.46 514.539 1052.29 519.242C1052.12 523.273 1051.96 528.229 1051.79 534.107C1051.62 539.986 1051.45 546.705 1051.29 554.264C1063.38 545.529 1072.7 538.559 1079.25 533.352C1085.8 527.977 1090.59 523.861 1093.61 521.006C1097.14 517.814 1099.24 515.547 1099.91 514.203C1099.74 513.195 1099.32 512.104 1098.65 510.928C1097.81 509.92 1096.64 508.744 1095.12 507.4C1093.61 506.057 1091.35 504.545 1088.32 502.865C1092.69 503.369 1096.47 503.705 1099.66 503.873C1103.02 504.041 1105.88 504.209 1108.23 504.377C1110.91 504.545 1113.27 504.545 1115.28 504.377C1117.46 504.377 1120.15 504.293 1123.34 504.125C1128.89 503.957 1137.45 503.705 1149.04 503.369C1137.79 509.248 1128.89 514.287 1122.34 518.486C1118.64 520.838 1115.37 523.021 1112.51 525.037C1109.65 527.221 1106.71 529.488 1103.69 531.84C1101 533.855 1097.9 536.207 1094.37 538.895C1091.01 541.582 1087.65 544.438 1084.29 547.461C1090.17 557.035 1095.29 564.93 1099.66 571.145C1104.2 577.359 1107.97 582.398 1111 586.262C1114.53 590.797 1117.63 594.408 1120.32 597.096C1123.01 599.615 1126.54 602.471 1130.9 605.662C1134.6 608.518 1139.38 611.877 1145.26 615.74C1151.31 619.436 1158.62 623.719 1167.18 628.59C1162.82 627.75 1158.62 627.162 1154.59 626.826C1150.55 626.658 1147.11 626.658 1144.26 626.826C1140.73 626.994 1137.54 627.33 1134.68 627.834C1131.66 628.506 1128.3 629.346 1124.6 630.354C1121.41 631.193 1117.63 632.285 1113.27 633.629C1109.07 635.141 1104.45 637.072 1099.41 639.424C1102.6 637.072 1104.95 634.805 1106.46 632.621C1108.14 630.605 1109.32 628.926 1109.99 627.582C1110.66 625.902 1110.91 624.475 1110.75 623.299C1109.91 621.619 1107.97 618.176 1104.95 612.969C1102.1 608.602 1097.9 602.219 1092.35 593.82C1086.81 585.422 1078.92 574 1068.67 559.555C1068.17 559.723 1067.33 560.227 1066.15 561.066C1065.14 561.906 1063.63 563.082 1061.62 564.594C1059.6 565.938 1056.91 567.953 1053.55 570.641L1060.36 614.732C1058.84 615.404 1057.16 615.992 1055.32 616.496C1053.64 617 1052.04 617.42 1050.53 617.756C1048.68 618.26 1046.83 618.596 1044.99 618.764C1043.14 618.932 1040.96 619.268 1038.44 619.771C1036.25 620.107 1033.65 620.527 1030.62 621.031C1027.6 621.703 1024.16 622.459 1020.29 623.299C1022.48 621.787 1024.24 620.023 1025.59 618.008C1026.93 616.16 1028.02 614.396 1028.86 612.717C1029.7 610.869 1030.46 608.938 1031.13 606.922C1031.46 605.242 1031.8 600.875 1032.14 593.82C1032.64 586.766 1033.06 578.367 1033.4 568.625C1033.73 558.715 1033.98 548.133 1034.15 536.879C1034.49 525.625 1034.66 515.043 1034.66 505.133C1034.66 495.055 1034.57 486.32 1034.4 478.93C1034.24 471.371 1033.9 466.5 1033.4 464.316C1032.56 461.629 1031.55 458.773 1030.37 455.75C1029.37 453.062 1027.94 450.039 1026.09 446.68C1024.41 443.152 1022.31 439.373 1019.79 435.342Z" fill="white"/>
</svg>
