<svg width="2200" height="1292" viewBox="0 0 2200 1292" fill="none" xmlns="http://www.w3.org/2000/svg">
<path d="M376.949 254.16C388.342 254.16 398.596 256.113 407.711 260.02C417.151 263.6 425.777 267.669 433.59 272.227C441.728 276.784 449.378 281.016 456.539 284.922C463.701 288.503 471.025 290.293 478.512 290.293C484.371 289.967 491.044 289.154 498.531 287.852C505.042 286.549 512.529 284.596 520.992 281.992C529.781 279.062 539.547 274.831 550.289 269.297C539.547 279.714 530.758 288.503 523.922 295.664C517.411 302.5 512.366 308.197 508.785 312.754C504.553 317.962 501.461 322.031 499.508 324.961C497.555 328.542 494.625 333.913 490.719 341.074C487.138 347.585 482.255 356.374 476.07 367.441C469.885 378.184 462.073 392.344 452.633 409.922C452.633 387.461 450.354 370.046 445.797 357.676C441.565 345.306 436.845 335.866 431.637 329.355C425.452 321.868 418.453 317.148 410.641 315.195C403.479 314.219 396.318 315.521 389.156 319.102C381.995 322.357 374.833 327.24 367.672 333.75C360.836 340.26 354.163 348.073 347.652 357.188C341.467 365.977 335.771 375.254 330.562 385.02C325.68 394.785 321.611 404.714 318.355 414.805C315.1 424.57 312.984 433.685 312.008 442.148C311.031 449.635 310.868 458.424 311.52 468.516C312.171 478.281 313.635 488.372 315.914 498.789C318.193 508.88 321.122 518.809 324.703 528.574C328.284 538.34 332.678 547.129 337.887 554.941C343.421 562.428 349.605 568.613 356.441 573.496C363.277 578.053 371.09 580.169 379.879 579.844C389.645 579.193 399.247 576.263 408.688 571.055C416.826 566.823 425.126 560.312 433.59 551.523C442.053 542.409 449.378 529.551 455.562 512.949L527.828 526.133C506.995 551.523 486.65 570.566 466.793 583.262C447.262 595.957 429.684 604.909 414.059 610.117C395.829 615.977 378.577 618.743 362.301 618.418C341.793 616.139 322.587 609.954 304.684 599.863C286.78 589.772 271.318 577.565 258.297 563.242C245.602 548.594 235.673 532.643 228.512 515.391C221.35 498.138 218.258 481.211 219.234 464.609C219.885 453.542 222.164 440.684 226.07 426.035C229.977 411.061 235.185 395.762 241.695 380.137C248.531 364.512 256.669 349.212 266.109 334.238C275.549 319.264 285.966 305.918 297.359 294.199C308.753 282.155 321.122 272.552 334.469 265.391C348.141 257.904 362.301 254.16 376.949 254.16ZM653.805 396.25C662.268 396.25 671.057 397.878 680.172 401.133C689.286 404.062 698.076 407.969 706.539 412.852C715.003 417.409 722.652 422.454 729.488 427.988C736.65 433.197 742.509 438.242 747.066 443.125C755.204 451.914 760.738 463.796 763.668 478.77C766.923 493.418 767.574 508.555 765.621 524.18C763.668 539.479 759.111 553.965 751.949 567.637C744.788 581.309 734.859 591.4 722.164 597.91C713.049 602.467 704.098 606.048 695.309 608.652C686.52 611.257 678.056 613.21 669.918 614.512C661.78 615.814 654.13 616.465 646.969 616.465C639.807 616.465 633.622 616.302 628.414 615.977C618.648 615.326 608.395 611.908 597.652 605.723C587.236 599.538 577.307 591.888 567.867 582.773C558.753 573.659 550.94 563.73 544.43 552.988C537.919 541.921 534.013 531.504 532.711 521.738C530.758 508.392 530.432 494.395 531.734 479.746C533.036 465.098 537.757 451.589 545.895 439.219C554.358 426.849 567.053 416.595 583.98 408.457C601.233 400.319 624.508 396.25 653.805 396.25ZM637.691 585.703C641.272 586.354 646.155 585.54 652.34 583.262C658.525 580.658 664.547 576.589 670.406 571.055C676.591 565.521 681.962 558.522 686.52 550.059C691.402 541.27 694.332 530.69 695.309 518.32C696.285 506.276 696.285 495.208 695.309 485.117C694.658 475.026 693.193 466.237 690.914 458.75C688.635 450.938 686.031 444.59 683.102 439.707C680.172 434.824 677.079 431.406 673.824 429.453C668.29 426.523 661.617 424.245 653.805 422.617C645.992 420.664 639.319 420.99 633.785 423.594C631.181 424.896 627.926 427.663 624.02 431.895C620.113 436.126 616.207 441.497 612.301 448.008C608.395 454.193 604.814 461.354 601.559 469.492C598.629 477.63 596.513 486.094 595.211 494.883C593.909 503.672 593.583 513.112 594.234 523.203C595.211 533.294 597.327 542.897 600.582 552.012C603.837 560.801 608.395 568.451 614.254 574.961C620.439 581.146 628.251 584.727 637.691 585.703ZM786.617 383.555C794.104 382.904 800.452 382.253 805.66 381.602C811.194 380.951 815.751 380.299 819.332 379.648C823.564 378.997 827.145 378.346 830.074 377.695C833.004 377.37 836.259 376.719 839.84 375.742C843.095 375.091 846.676 374.277 850.582 373.301C854.814 371.999 859.371 370.534 864.254 368.906L861.324 430.918C868.486 419.525 876.786 410.898 886.227 405.039C895.667 398.854 904.618 394.297 913.082 391.367C923.173 387.786 933.264 385.671 943.355 385.02C953.772 385.345 963.375 386.973 972.164 389.902C979.651 392.507 987.138 396.576 994.625 402.109C1002.44 407.643 1008.46 415.781 1012.69 426.523C1023.76 415.13 1034.66 406.341 1045.41 400.156C1056.47 393.646 1066.24 388.763 1074.7 385.508C1084.79 381.927 1094.23 379.811 1103.02 379.16C1114.74 378.835 1125.48 380.788 1135.25 385.02C1145.34 389.251 1154.13 394.622 1161.62 401.133C1169.1 407.318 1175.13 413.991 1179.68 421.152C1184.24 427.988 1186.85 434.01 1187.5 439.219C1188.47 446.38 1187.98 455.658 1186.03 467.051C1184.08 478.118 1181.8 489.512 1179.2 501.23C1176.59 512.624 1174.15 523.203 1171.87 532.969C1169.92 542.409 1169.1 549.082 1169.43 552.988C1170.41 556.243 1172.68 560.15 1176.27 564.707C1179.52 568.613 1184.24 573.496 1190.43 579.355C1196.94 584.889 1206.21 591.4 1218.26 598.887C1207.84 598.561 1198.56 598.236 1190.43 597.91C1182.61 597.585 1175.94 597.096 1170.41 596.445C1163.9 595.794 1158.2 595.306 1153.32 594.98C1149.41 594.98 1144.69 594.655 1139.16 594.004C1134.6 593.678 1128.58 593.19 1121.09 592.539C1113.93 591.888 1105.63 591.237 1096.19 590.586C1099.77 589.609 1102.7 587.819 1104.98 585.215C1107.26 582.285 1109.21 579.518 1110.84 576.914C1112.46 573.659 1113.77 570.078 1114.74 566.172C1115.39 562.917 1116.04 557.708 1116.7 550.547C1117.35 543.385 1117.83 535.247 1118.16 526.133C1118.81 517.018 1119.14 507.415 1119.14 497.324C1119.46 487.233 1119.46 477.63 1119.14 468.516C1118.81 459.401 1118.16 451.1 1117.18 443.613C1116.21 436.126 1114.9 430.43 1113.28 426.523C1111.98 423.594 1109.7 421.315 1106.44 419.688C1103.19 417.734 1099.44 416.595 1095.21 416.27C1090.98 415.618 1086.75 415.781 1082.52 416.758C1078.28 417.409 1074.54 418.711 1071.29 420.664C1068.36 422.943 1064.45 426.035 1059.57 429.941C1055.33 433.522 1049.8 438.405 1042.96 444.59C1036.13 450.775 1027.5 458.587 1017.09 468.027C1016.11 488.535 1015.3 505.137 1014.64 517.832C1014.32 530.202 1013.99 539.642 1013.67 546.152C1013.34 553.965 1013.18 559.336 1013.18 562.266C1012.85 564.87 1013.02 567.311 1013.67 569.59C1014.32 574.473 1016.27 579.03 1019.53 583.262C1015.62 582.285 1011.39 581.634 1006.83 581.309C1002.6 580.983 998.694 580.658 995.113 580.332C990.882 580.007 986.65 579.844 982.418 579.844C978.837 579.844 974.931 580.007 970.699 580.332C967.118 580.658 962.724 581.146 957.516 581.797C952.307 582.122 946.611 582.611 940.426 583.262C943.03 581.634 945.146 579.681 946.773 577.402C948.401 575.124 949.703 573.008 950.68 571.055C951.982 568.776 952.958 566.66 953.609 564.707C953.935 562.754 954.586 558.034 955.562 550.547C956.539 542.734 957.19 533.62 957.516 523.203C957.841 512.786 957.841 501.882 957.516 490.488C957.19 478.77 956.051 468.19 954.098 458.75C952.145 448.984 949.052 441.009 944.82 434.824C940.914 428.639 935.706 425.872 929.195 426.523C921.383 427.174 913.408 429.128 905.27 432.383C898.434 434.987 891.109 438.893 883.297 444.102C875.484 449.31 868.16 456.309 861.324 465.098C860.022 489.512 859.208 508.88 858.883 523.203C858.883 537.526 859.046 548.431 859.371 555.918C859.697 564.707 860.022 570.729 860.348 573.984C860.673 576.263 861.487 578.542 862.789 580.82C863.766 582.773 864.905 585.052 866.207 587.656C867.835 590.26 869.625 592.702 871.578 594.98L793.941 591.074C796.546 589.772 798.824 588.145 800.777 586.191C802.73 583.913 804.358 581.634 805.66 579.355C806.962 576.751 808.264 574.147 809.566 571.543C810.543 569.264 811.357 563.893 812.008 555.43C812.984 546.966 813.798 537.038 814.449 525.645C815.1 513.926 815.589 501.719 815.914 489.023C816.565 476.003 816.891 463.958 816.891 452.891C817.216 441.497 817.379 431.895 817.379 424.082C817.379 415.944 817.216 411.061 816.891 409.434C815.914 406.178 814.124 402.76 811.52 399.18C809.241 396.576 806.148 393.809 802.242 390.879C798.336 387.624 793.128 385.182 786.617 383.555ZM1347.65 536.387C1356.77 536.387 1365.23 535.41 1373.04 533.457C1379.55 531.829 1385.74 529.225 1391.6 525.645C1397.78 521.738 1401.85 516.042 1403.8 508.555C1410.32 509.857 1415.85 510.996 1420.41 511.973C1424.96 512.624 1428.87 513.275 1432.12 513.926C1435.71 514.902 1438.8 515.553 1441.4 515.879C1444.01 516.53 1447.1 517.181 1450.68 517.832C1453.93 518.483 1457.84 519.297 1462.4 520.273C1467.28 520.924 1472.98 521.901 1479.49 523.203C1474.61 522.552 1469.56 523.04 1464.35 524.668C1459.47 526.296 1454.75 528.086 1450.19 530.039C1444.98 532.318 1440.1 535.085 1435.54 538.34C1432.61 540.293 1429.2 543.223 1425.29 547.129C1421.71 551.035 1416.5 554.779 1409.66 558.359C1402.83 561.94 1393.71 565.033 1382.32 567.637C1371.25 569.915 1356.93 570.729 1339.35 570.078C1318.19 569.427 1300.45 565.684 1286.13 558.848C1271.81 551.686 1260.25 543.06 1251.46 532.969C1242.67 522.552 1236.32 511.322 1232.42 499.277C1228.51 487.233 1226.4 476.003 1226.07 465.586C1225.74 455.169 1228.84 444.264 1235.35 432.871C1241.86 421.478 1250.97 411.061 1262.69 401.621C1274.74 392.181 1289.22 384.531 1306.15 378.672C1323.08 372.487 1341.63 369.395 1361.81 369.395C1373.53 369.395 1384.27 370.859 1394.04 373.789C1404.13 376.393 1413.24 379.974 1421.38 384.531C1429.85 389.089 1437.17 394.297 1443.36 400.156C1449.54 405.69 1454.75 411.387 1458.98 417.246C1463.21 423.431 1466.79 429.941 1469.72 436.777C1472.33 442.637 1474.44 449.31 1476.07 456.797C1477.7 464.284 1478.19 471.934 1477.54 479.746C1452.8 480.397 1432.78 480.885 1417.48 481.211C1402.5 481.536 1390.78 481.699 1382.32 481.699H1360.35H1343.75C1337.89 481.699 1330.24 481.862 1320.8 482.188C1311.36 482.513 1299.8 483.001 1286.13 483.652C1287.76 496.673 1291.83 506.764 1298.34 513.926C1305.17 520.762 1312.33 525.97 1319.82 529.551C1328.28 533.457 1337.56 535.736 1347.65 536.387ZM1303.71 448.496C1314.12 449.147 1322.75 449.635 1329.59 449.961C1336.75 450.286 1342.61 450.612 1347.16 450.938C1352.05 451.263 1355.95 451.426 1358.88 451.426H1371.09C1379.23 451.426 1394.36 450.938 1416.5 449.961C1415.52 435.638 1412.43 424.733 1407.22 417.246C1402.34 409.759 1397.13 404.225 1391.6 400.645C1385.09 396.738 1377.93 394.46 1370.11 393.809C1348.95 394.134 1333.17 398.529 1322.75 406.992C1312.66 415.456 1306.31 429.29 1303.71 448.496Z" fill="white"/>
<path d="M823.844 685.738C834.586 687.04 844.352 688.017 853.141 688.668C861.604 689.319 868.928 689.97 875.113 690.621C882.275 691.272 888.622 691.76 894.156 692.086C900.016 692.086 907.503 691.923 916.617 691.598C924.43 691.272 934.358 690.784 946.402 690.133C958.447 689.482 973.258 688.342 990.836 686.715C982.372 691.598 975.374 696.48 969.84 701.363C964.632 706.246 960.562 710.641 957.633 714.547C954.052 719.104 951.448 723.661 949.82 728.219C948.844 734.404 949.169 746.448 950.797 764.352C951.448 771.839 952.424 781.116 953.727 792.184C955.354 802.926 957.307 815.784 959.586 830.758C962.19 845.406 965.283 862.333 968.863 881.539C972.77 900.745 977.164 922.555 982.047 946.969C988.557 928.414 993.928 911.975 998.16 897.652C1002.39 883.004 1005.97 870.471 1008.9 860.055C1012.16 848.336 1014.92 837.919 1017.2 828.805C1019.48 819.365 1022.25 807.158 1025.5 792.184C1028.11 779.488 1031.53 763.049 1035.76 742.867C1039.99 722.685 1045.2 697.783 1051.38 668.16L1068.96 670.602C1070.59 693.714 1072.22 714.059 1073.84 731.637C1075.8 749.215 1077.42 764.189 1078.73 776.559C1080.03 790.882 1081.33 803.251 1082.63 813.668C1083.93 823.108 1085.89 834.013 1088.49 846.383C1090.77 856.799 1093.7 869.658 1097.28 884.957C1100.86 899.931 1105.58 916.858 1111.44 935.738C1117.3 912.626 1122.51 891.956 1127.07 873.727C1131.95 855.497 1136.02 839.384 1139.27 825.387C1142.85 811.389 1145.78 799.345 1148.06 789.254C1150.67 779.163 1152.78 770.699 1154.41 763.863C1157.99 747.587 1160.11 736.682 1160.76 731.148C1160.43 724.964 1158.97 718.941 1156.36 713.082C1154.08 707.874 1150.5 702.177 1145.62 695.992C1140.74 689.807 1133.58 683.785 1124.14 677.926C1143.99 678.577 1160.11 679.065 1172.48 679.391C1185.17 679.391 1195.26 679.391 1202.75 679.391H1222.28H1239.86C1246.37 679.391 1254.83 679.391 1265.25 679.391C1275.99 679.065 1289.66 678.577 1306.27 677.926C1291.94 685.413 1280.39 692.249 1271.6 698.434C1262.81 704.618 1255.97 709.827 1251.09 714.059C1245.23 719.267 1241 723.661 1238.39 727.242C1235.79 733.753 1231.56 748.401 1225.7 771.188C1223.1 780.953 1220.17 793.16 1216.91 807.809C1213.65 822.132 1209.75 839.384 1205.19 859.566C1200.96 879.749 1196.08 903.349 1190.54 930.367C1185.01 957.06 1178.82 987.659 1171.99 1022.16L1087.52 1013.38L1051.38 861.52C1045.85 889.189 1041.45 911.65 1038.2 928.902C1034.94 945.829 1032.5 959.013 1030.88 968.453C1028.92 979.846 1027.78 988.147 1027.46 993.355C1027.13 997.913 1026.81 1002.31 1026.48 1006.54C1026.15 1010.12 1025.67 1014.03 1025.02 1018.26C1024.69 1022.49 1024.2 1026.4 1023.55 1029.98H937.125C928.661 992.867 921.012 960.152 914.176 931.832C907.665 903.186 901.806 878.121 896.598 856.637C891.389 835.152 886.832 816.923 882.926 801.949C879.345 786.975 876.09 774.443 873.16 764.352C866.65 740.914 861.93 726.428 859 720.895C856.721 718.29 853.792 715.198 850.211 711.617C847.281 708.688 843.701 705.107 839.469 700.875C834.911 696.318 829.703 691.272 823.844 685.738ZM1374.62 810.25C1383.09 810.25 1391.88 811.878 1400.99 815.133C1410.11 818.062 1418.9 821.969 1427.36 826.852C1435.82 831.409 1443.47 836.454 1450.31 841.988C1457.47 847.197 1463.33 852.242 1467.89 857.125C1476.02 865.914 1481.56 877.796 1484.49 892.77C1487.74 907.418 1488.39 922.555 1486.44 938.18C1484.49 953.479 1479.93 967.965 1472.77 981.637C1465.61 995.309 1455.68 1005.4 1442.98 1011.91C1433.87 1016.47 1424.92 1020.05 1416.13 1022.65C1407.34 1025.26 1398.88 1027.21 1390.74 1028.51C1382.6 1029.81 1374.95 1030.46 1367.79 1030.46C1360.63 1030.46 1354.44 1030.3 1349.23 1029.98C1339.47 1029.33 1329.21 1025.91 1318.47 1019.72C1308.06 1013.54 1298.13 1005.89 1288.69 996.773C1279.57 987.659 1271.76 977.73 1265.25 966.988C1258.74 955.921 1254.83 945.504 1253.53 935.738C1251.58 922.392 1251.25 908.395 1252.55 893.746C1253.86 879.098 1258.58 865.589 1266.71 853.219C1275.18 840.849 1287.87 830.595 1304.8 822.457C1322.05 814.319 1345.33 810.25 1374.62 810.25ZM1358.51 999.703C1362.09 1000.35 1366.98 999.54 1373.16 997.262C1379.35 994.658 1385.37 990.589 1391.23 985.055C1397.41 979.521 1402.78 972.522 1407.34 964.059C1412.22 955.27 1415.15 944.69 1416.13 932.32C1417.11 920.276 1417.11 909.208 1416.13 899.117C1415.48 889.026 1414.01 880.237 1411.73 872.75C1409.46 864.938 1406.85 858.59 1403.92 853.707C1400.99 848.824 1397.9 845.406 1394.64 843.453C1389.11 840.523 1382.44 838.245 1374.62 836.617C1366.81 834.664 1360.14 834.99 1354.61 837.594C1352 838.896 1348.75 841.663 1344.84 845.895C1340.93 850.126 1337.03 855.497 1333.12 862.008C1329.21 868.193 1325.63 875.354 1322.38 883.492C1319.45 891.63 1317.33 900.094 1316.03 908.883C1314.73 917.672 1314.4 927.112 1315.05 937.203C1316.03 947.294 1318.15 956.897 1321.4 966.012C1324.66 974.801 1329.21 982.451 1335.07 988.961C1341.26 995.146 1349.07 998.727 1358.51 999.703ZM1505 795.113C1511.18 795.439 1516.71 795.602 1521.6 795.602C1526.81 795.276 1531.2 794.951 1534.78 794.625C1539.01 794.299 1542.76 793.974 1546.01 793.648C1550.89 792.997 1555.94 792.184 1561.15 791.207C1565.71 790.556 1570.43 789.742 1575.31 788.766C1580.52 787.464 1585.56 785.999 1590.45 784.371C1588.49 789.254 1586.86 793.486 1585.56 797.066C1584.26 800.647 1583.28 803.74 1582.63 806.344C1581.66 809.273 1581.17 811.715 1581.17 813.668C1580.84 815.947 1580.68 818.714 1580.68 821.969C1580.35 827.503 1580.35 836.454 1580.68 848.824C1597.61 834.176 1611.77 822.783 1623.16 814.645C1634.88 806.507 1644.16 800.159 1650.99 795.602C1659.13 790.393 1665.48 786.975 1670.04 785.348C1682.08 783.395 1692.66 786.161 1701.77 793.648C1705.68 796.904 1709.42 801.298 1713 806.832C1716.58 812.04 1719.68 819.039 1722.28 827.828C1724.89 836.617 1726.84 847.197 1728.14 859.566C1729.44 871.611 1729.61 886.096 1728.63 903.023C1721.79 903.674 1715.61 904.326 1710.07 904.977C1704.87 905.628 1700.47 906.116 1696.89 906.441C1692.66 907.092 1688.75 907.418 1685.17 907.418L1671.99 908.883C1667.43 909.534 1661.73 910.185 1654.9 910.836C1648.39 911.161 1640.41 911.812 1630.97 912.789C1644.64 901.721 1653.43 892.118 1657.34 883.98C1661.57 875.517 1663.36 868.518 1662.71 862.984C1662.06 856.799 1659.13 851.428 1653.92 846.871C1647.74 843.29 1641.06 841.988 1633.9 842.965C1627.72 843.616 1620.56 846.383 1612.42 851.266C1604.28 856.148 1595.65 865.263 1586.54 878.609C1587.19 899.443 1587.84 916.695 1588.49 930.367C1589.47 944.039 1590.28 955.107 1590.93 963.57C1591.91 973.336 1592.72 980.986 1593.38 986.52C1594.35 991.402 1596.3 996.611 1599.23 1002.14C1601.51 1006.7 1604.77 1011.75 1609 1017.28C1613.23 1022.82 1618.77 1028.35 1625.6 1033.88C1611.28 1033.23 1599.56 1033.23 1590.45 1033.88C1584.91 1034.21 1580.03 1034.53 1575.8 1034.86C1571.24 1035.51 1566.36 1036.16 1561.15 1036.81C1556.59 1037.46 1551.22 1038.11 1545.04 1038.77C1539.18 1039.74 1532.67 1040.72 1525.5 1041.7C1528.11 1038.11 1530.22 1033.88 1531.85 1029C1533.48 1024.44 1534.78 1020.05 1535.76 1015.82C1537.06 1010.93 1538.04 1005.89 1538.69 1000.68C1539.01 996.122 1539.18 989.286 1539.18 980.172C1539.5 971.057 1539.34 960.803 1538.69 949.41C1538.36 937.691 1537.87 925.647 1537.22 913.277C1536.57 900.582 1535.76 888.701 1534.78 877.633C1533.8 866.565 1532.67 856.962 1531.36 848.824C1530.39 840.361 1529.25 834.501 1527.95 831.246C1526.32 827.34 1524.36 823.434 1522.09 819.527C1520.13 815.947 1517.69 812.203 1514.76 808.297C1511.83 804.065 1508.58 799.671 1505 795.113ZM1744.25 676.949C1747.83 678.577 1752.07 679.716 1756.95 680.367C1762.16 681.018 1767.04 681.344 1771.6 681.344C1777.13 681.344 1782.83 681.181 1788.69 680.855C1794.55 680.53 1801.71 679.879 1810.17 678.902C1817.01 678.251 1825.47 677.438 1835.56 676.461C1845.65 675.484 1856.88 674.182 1869.25 672.555C1864.7 674.833 1860.79 677.275 1857.54 679.879C1854.28 682.483 1851.51 685.087 1849.23 687.691C1846.63 690.621 1844.51 693.551 1842.89 696.48C1840.61 700.387 1837.52 707.223 1833.61 716.988C1830.03 726.428 1826.29 737.008 1822.38 748.727C1818.8 760.445 1815.54 772.327 1812.61 784.371C1810.01 796.415 1808.54 806.669 1808.22 815.133C1807.89 822.294 1807.57 830.432 1807.24 839.547C1806.92 847.359 1806.59 856.962 1806.27 868.355C1805.94 879.749 1805.61 892.77 1805.29 907.418C1828.73 890.491 1846.79 876.982 1859.49 866.891C1872.18 856.474 1881.46 848.499 1887.32 842.965C1894.16 836.78 1898.23 832.385 1899.53 829.781C1899.2 827.828 1898.39 825.712 1897.09 823.434C1895.46 821.48 1893.18 819.202 1890.25 816.598C1887.32 813.993 1882.93 811.064 1877.07 807.809C1885.53 808.785 1892.85 809.436 1899.04 809.762C1905.55 810.087 1911.08 810.413 1915.64 810.738C1920.85 811.064 1925.41 811.064 1929.31 810.738C1933.54 810.738 1938.75 810.576 1944.94 810.25C1955.68 809.924 1972.28 809.436 1994.74 808.785C1972.93 820.178 1955.68 829.944 1942.98 838.082C1935.82 842.639 1929.48 846.871 1923.94 850.777C1918.41 855.009 1912.71 859.404 1906.85 863.961C1901.64 867.867 1895.62 872.424 1888.79 877.633C1882.27 882.841 1875.76 888.375 1869.25 894.234C1880.65 912.789 1890.58 928.089 1899.04 940.133C1907.83 952.177 1915.15 961.943 1921.01 969.43C1927.85 978.219 1933.87 985.217 1939.08 990.426C1944.29 995.309 1951.12 1000.84 1959.59 1007.03C1966.75 1012.56 1976.02 1019.07 1987.42 1026.56C1999.14 1033.72 2013.3 1042.02 2029.9 1051.46C2021.43 1049.83 2013.3 1048.69 2005.48 1048.04C1997.67 1047.72 1991 1047.72 1985.46 1048.04C1978.63 1048.37 1972.44 1049.02 1966.91 1050C1961.05 1051.3 1954.54 1052.93 1947.38 1054.88C1941.19 1056.51 1933.87 1058.62 1925.41 1061.23C1917.27 1064.16 1908.32 1067.9 1898.55 1072.46C1904.74 1067.9 1909.29 1063.51 1912.22 1059.27C1915.48 1055.37 1917.76 1052.11 1919.06 1049.51C1920.36 1046.25 1920.85 1043.49 1920.52 1041.21C1918.9 1037.95 1915.15 1031.28 1909.29 1021.19C1903.76 1012.72 1895.62 1000.35 1884.88 984.078C1874.14 967.802 1858.84 945.667 1838.98 917.672C1838 917.997 1836.38 918.974 1834.1 920.602C1832.14 922.229 1829.21 924.508 1825.31 927.438C1821.4 930.042 1816.19 933.948 1809.68 939.156L1822.87 1024.61C1819.94 1025.91 1816.68 1027.05 1813.1 1028.02C1809.85 1029 1806.75 1029.81 1803.82 1030.46C1800.24 1031.44 1796.66 1032.09 1793.08 1032.42C1789.5 1032.74 1785.27 1033.39 1780.39 1034.37C1776.15 1035.02 1771.11 1035.84 1765.25 1036.81C1759.39 1038.11 1752.72 1039.58 1745.23 1041.21C1749.46 1038.28 1752.88 1034.86 1755.48 1030.95C1758.09 1027.37 1760.2 1023.95 1761.83 1020.7C1763.46 1017.12 1764.92 1013.38 1766.23 1009.47C1766.88 1006.21 1767.53 997.75 1768.18 984.078C1769.16 970.406 1769.97 954.13 1770.62 935.25C1771.27 916.044 1771.76 895.536 1772.09 873.727C1772.74 851.917 1773.06 831.409 1773.06 812.203C1773.06 792.672 1772.9 775.745 1772.57 761.422C1772.25 746.773 1771.6 737.333 1770.62 733.102C1768.99 727.893 1767.04 722.359 1764.76 716.5C1762.81 711.292 1760.04 705.432 1756.46 698.922C1753.21 692.086 1749.14 684.762 1744.25 676.949Z" fill="white"/>
</svg>
