<svg width="6048" height="3340" viewBox="0 0 6048 3340" fill="none" xmlns="http://www.w3.org/2000/svg">
<path d="M855.848 467.48C890.027 467.48 920.789 473.34 948.133 485.059C976.453 495.801 1002.33 508.008 1025.77 521.68C1050.18 535.352 1073.13 548.047 1094.62 559.766C1116.1 570.508 1138.07 575.879 1160.54 575.879C1178.11 574.902 1198.13 572.461 1220.59 568.555C1240.12 564.648 1262.59 558.789 1287.98 550.977C1314.34 542.188 1343.64 529.492 1375.87 512.891C1343.64 544.141 1317.27 570.508 1296.77 591.992C1277.23 612.5 1262.1 629.59 1251.36 643.262C1238.66 658.887 1229.38 671.094 1223.52 679.883C1217.66 690.625 1208.88 706.738 1197.16 728.223C1186.41 747.754 1171.77 774.121 1153.21 807.324C1134.66 839.551 1111.22 882.031 1082.9 934.766C1082.9 867.383 1076.06 815.137 1062.39 778.027C1049.7 740.918 1035.54 712.598 1019.91 693.066C1001.36 670.605 980.359 656.445 956.922 650.586C935.438 647.656 913.953 651.562 892.469 662.305C870.984 672.07 849.5 686.719 828.016 706.25C807.508 725.781 787.488 749.219 767.957 776.562C749.402 802.93 732.312 830.762 716.688 860.059C702.039 889.355 689.832 919.141 680.066 949.414C670.301 978.711 663.953 1006.05 661.023 1031.45C658.094 1053.91 657.605 1080.27 659.559 1110.55C661.512 1139.84 665.906 1170.12 672.742 1201.37C679.578 1231.64 688.367 1261.43 699.109 1290.72C709.852 1320.02 723.035 1346.39 738.66 1369.82C755.262 1392.29 773.816 1410.84 794.324 1425.49C814.832 1439.16 838.27 1445.51 864.637 1444.53C893.934 1442.58 922.742 1433.79 951.062 1418.16C975.477 1405.47 1000.38 1385.94 1025.77 1359.57C1051.16 1332.23 1073.13 1293.65 1091.69 1243.85L1308.48 1283.4C1245.98 1359.57 1184.95 1416.7 1125.38 1454.79C1066.79 1492.87 1014.05 1519.73 967.176 1535.35C912.488 1552.93 860.73 1561.23 811.902 1560.25C750.379 1553.42 692.762 1534.86 639.051 1504.59C585.34 1474.32 538.953 1437.7 499.891 1394.73C461.805 1350.78 432.02 1302.93 410.535 1251.17C389.051 1199.41 379.773 1148.63 382.703 1098.83C384.656 1065.62 391.492 1027.05 403.211 983.105C414.93 938.184 430.555 892.285 450.086 845.41C470.594 798.535 495.008 752.637 523.328 707.715C551.648 662.793 582.898 622.754 617.078 587.598C651.258 551.465 688.367 522.656 728.406 501.172C769.422 478.711 811.902 467.48 855.848 467.48ZM1686.41 893.75C1711.8 893.75 1738.17 898.633 1765.52 908.398C1792.86 917.188 1819.23 928.906 1844.62 943.555C1870.01 957.227 1892.96 972.363 1913.46 988.965C1934.95 1004.59 1952.53 1019.73 1966.2 1034.38C1990.61 1060.74 2007.21 1096.39 2016 1141.31C2025.77 1185.25 2027.72 1230.66 2021.86 1277.54C2016 1323.44 2002.33 1366.89 1980.85 1407.91C1959.36 1448.93 1929.58 1479.2 1891.49 1498.73C1864.15 1512.4 1837.29 1523.14 1810.93 1530.96C1784.56 1538.77 1759.17 1544.63 1734.75 1548.54C1710.34 1552.44 1687.39 1554.39 1665.91 1554.39C1644.42 1554.39 1625.87 1553.91 1610.24 1552.93C1580.95 1550.98 1550.18 1540.72 1517.96 1522.17C1486.71 1503.61 1456.92 1480.66 1428.6 1453.32C1401.26 1425.98 1377.82 1396.19 1358.29 1363.96C1338.76 1330.76 1327.04 1299.51 1323.13 1270.21C1317.27 1230.18 1316.3 1188.18 1320.2 1144.24C1324.11 1100.29 1338.27 1059.77 1362.68 1022.66C1388.07 985.547 1426.16 954.785 1476.94 930.371C1528.7 905.957 1598.52 893.75 1686.41 893.75ZM1638.07 1462.11C1648.82 1464.06 1663.46 1461.62 1682.02 1454.79C1700.57 1446.97 1718.64 1434.77 1736.22 1418.16C1754.77 1401.56 1770.89 1380.57 1784.56 1355.18C1799.21 1328.81 1808 1297.07 1810.93 1259.96C1813.86 1223.83 1813.86 1190.62 1810.93 1160.35C1808.97 1130.08 1804.58 1103.71 1797.74 1081.25C1790.91 1057.81 1783.09 1038.77 1774.3 1024.12C1765.52 1009.47 1756.24 999.219 1746.47 993.359C1729.87 984.57 1709.85 977.734 1686.41 972.852C1662.98 966.992 1642.96 967.969 1626.36 975.781C1618.54 979.688 1608.78 987.988 1597.06 1000.68C1585.34 1013.38 1573.62 1029.49 1561.9 1049.02C1550.18 1067.58 1539.44 1089.06 1529.68 1113.48C1520.89 1137.89 1514.54 1163.28 1510.63 1189.65C1506.73 1216.02 1505.75 1244.34 1507.7 1274.61C1510.63 1304.88 1516.98 1333.69 1526.75 1361.04C1536.51 1387.4 1550.18 1410.35 1567.76 1429.88C1586.32 1448.44 1609.75 1459.18 1638.07 1462.11ZM2084.85 855.664C2107.31 853.711 2126.36 851.758 2141.98 849.805C2158.58 847.852 2172.25 845.898 2183 843.945C2195.69 841.992 2206.43 840.039 2215.22 838.086C2224.01 837.109 2233.78 835.156 2244.52 832.227C2254.29 830.273 2265.03 827.832 2276.75 824.902C2289.44 820.996 2303.11 816.602 2317.76 811.719L2308.97 997.754C2330.46 963.574 2355.36 937.695 2383.68 920.117C2412 901.562 2438.86 887.891 2464.25 879.102C2494.52 868.359 2524.79 862.012 2555.07 860.059C2586.32 861.035 2615.12 865.918 2641.49 874.707C2663.95 882.52 2686.41 894.727 2708.88 911.328C2732.31 927.93 2750.38 952.344 2763.07 984.57C2796.28 950.391 2828.99 924.023 2861.22 905.469C2894.42 885.938 2923.72 871.289 2949.11 861.523C2979.38 850.781 3007.7 844.434 3034.07 842.48C3069.23 841.504 3101.45 847.363 3130.75 860.059C3161.02 872.754 3187.39 888.867 3209.85 908.398C3232.31 926.953 3250.38 946.973 3264.05 968.457C3277.72 988.965 3285.54 1007.03 3287.49 1022.66C3290.42 1044.14 3288.95 1071.97 3283.09 1106.15C3277.23 1139.36 3270.4 1173.54 3262.59 1208.69C3254.77 1242.87 3247.45 1274.61 3240.61 1303.91C3234.75 1332.23 3232.31 1352.25 3233.29 1363.96C3236.22 1373.73 3243.05 1385.45 3253.8 1399.12C3263.56 1410.84 3277.72 1425.49 3296.28 1443.07C3315.81 1459.67 3343.64 1479.2 3379.77 1501.66C3348.52 1500.68 3320.69 1499.71 3296.28 1498.73C3272.84 1497.75 3252.82 1496.29 3236.22 1494.34C3216.69 1492.38 3199.6 1490.92 3184.95 1489.94C3173.23 1489.94 3159.07 1488.96 3142.47 1487.01C3128.8 1486.04 3110.73 1484.57 3088.27 1482.62C3066.79 1480.66 3041.88 1478.71 3013.56 1476.76C3024.3 1473.83 3033.09 1468.46 3039.93 1460.64C3046.77 1451.86 3052.62 1443.55 3057.51 1435.74C3062.39 1425.98 3066.3 1415.23 3069.23 1403.52C3071.18 1393.75 3073.13 1378.12 3075.09 1356.64C3077.04 1335.16 3078.5 1310.74 3079.48 1283.4C3081.43 1256.05 3082.41 1227.25 3082.41 1196.97C3083.39 1166.7 3083.39 1137.89 3082.41 1110.55C3081.43 1083.2 3079.48 1058.3 3076.55 1035.84C3073.62 1013.38 3069.71 996.289 3064.83 984.57C3060.93 975.781 3054.09 968.945 3044.32 964.062C3034.56 958.203 3023.33 954.785 3010.63 953.809C2997.94 951.855 2985.24 952.344 2972.55 955.273C2959.85 957.227 2948.62 961.133 2938.86 966.992C2930.07 973.828 2918.35 983.105 2903.7 994.824C2891 1005.57 2874.4 1020.21 2853.89 1038.77C2833.39 1057.32 2807.51 1080.76 2776.26 1109.08C2773.33 1170.61 2770.89 1220.41 2768.93 1258.5C2767.96 1295.61 2766.98 1323.93 2766 1343.46C2765.03 1366.89 2764.54 1383.01 2764.54 1391.8C2763.56 1399.61 2764.05 1406.93 2766 1413.77C2767.96 1428.42 2773.82 1442.09 2783.58 1454.79C2771.86 1451.86 2759.17 1449.9 2745.5 1448.93C2732.8 1447.95 2721.08 1446.97 2710.34 1446C2697.64 1445.02 2684.95 1444.53 2672.25 1444.53C2661.51 1444.53 2649.79 1445.02 2637.1 1446C2626.36 1446.97 2613.17 1448.44 2597.55 1450.39C2581.92 1451.37 2564.83 1452.83 2546.28 1454.79C2554.09 1449.9 2560.44 1444.04 2565.32 1437.21C2570.2 1430.37 2574.11 1424.02 2577.04 1418.16C2580.95 1411.33 2583.88 1404.98 2585.83 1399.12C2586.8 1393.26 2588.76 1379.1 2591.69 1356.64C2594.62 1333.2 2596.57 1305.86 2597.55 1274.61C2598.52 1243.36 2598.52 1210.64 2597.55 1176.46C2596.57 1141.31 2593.15 1109.57 2587.29 1081.25C2581.43 1051.95 2572.16 1028.03 2559.46 1009.47C2547.74 990.918 2532.12 982.617 2512.59 984.57C2489.15 986.523 2465.22 992.383 2440.81 1002.15C2420.3 1009.96 2398.33 1021.68 2374.89 1037.3C2351.45 1052.93 2329.48 1073.93 2308.97 1100.29C2305.07 1173.54 2302.62 1231.64 2301.65 1274.61C2301.65 1317.58 2302.14 1350.29 2303.11 1372.75C2304.09 1399.12 2305.07 1417.19 2306.04 1426.95C2307.02 1433.79 2309.46 1440.62 2313.37 1447.46C2316.3 1453.32 2319.71 1460.16 2323.62 1467.97C2328.5 1475.78 2333.88 1483.11 2339.73 1489.94L2106.82 1478.22C2114.64 1474.32 2121.47 1469.43 2127.33 1463.57C2133.19 1456.74 2138.07 1449.9 2141.98 1443.07C2145.89 1435.25 2149.79 1427.44 2153.7 1419.63C2156.63 1412.79 2159.07 1396.68 2161.02 1371.29C2163.95 1345.9 2166.39 1316.11 2168.35 1281.93C2170.3 1246.78 2171.77 1210.16 2172.74 1172.07C2174.7 1133.01 2175.67 1096.88 2175.67 1063.67C2176.65 1029.49 2177.14 1000.68 2177.14 977.246C2177.14 952.832 2176.65 938.184 2175.67 933.301C2172.74 923.535 2167.37 913.281 2159.56 902.539C2152.72 894.727 2143.45 886.426 2131.73 877.637C2120.01 867.871 2104.38 860.547 2084.85 855.664ZM3767.96 1314.16C3795.3 1314.16 3820.69 1311.23 3844.13 1305.37C3863.66 1300.49 3882.21 1292.68 3899.79 1281.93C3918.35 1270.21 3930.55 1253.12 3936.41 1230.66C3955.95 1234.57 3972.55 1237.99 3986.22 1240.92C3999.89 1242.87 4011.61 1244.82 4021.38 1246.78C4032.12 1249.71 4041.39 1251.66 4049.21 1252.64C4057.02 1254.59 4066.3 1256.54 4077.04 1258.5C4086.8 1260.45 4098.52 1262.89 4112.2 1265.82C4126.84 1267.77 4143.93 1270.7 4163.46 1274.61C4148.82 1272.66 4133.68 1274.12 4118.05 1279C4103.41 1283.89 4089.25 1289.26 4075.57 1295.12C4059.95 1301.95 4045.3 1310.25 4031.63 1320.02C4022.84 1325.88 4012.59 1334.67 4000.87 1346.39C3990.12 1358.11 3974.5 1369.34 3953.99 1380.08C3933.48 1390.82 3906.14 1400.1 3871.96 1407.91C3838.76 1414.75 3795.79 1417.19 3743.05 1415.23C3679.58 1413.28 3626.36 1402.05 3583.39 1381.54C3540.42 1360.06 3505.75 1334.18 3479.38 1303.91C3453.02 1272.66 3433.97 1238.96 3422.25 1202.83C3410.54 1166.7 3404.19 1133.01 3403.21 1101.76C3402.23 1070.51 3411.51 1037.79 3431.04 1003.61C3450.57 969.434 3477.92 938.184 3513.07 909.863C3549.21 881.543 3592.66 858.594 3643.45 841.016C3694.23 822.461 3749.89 813.184 3810.44 813.184C3845.59 813.184 3877.82 817.578 3907.12 826.367C3937.39 834.18 3964.73 844.922 3989.15 858.594C4014.54 872.266 4036.51 887.891 4055.07 905.469C4073.62 922.07 4089.25 939.16 4101.94 956.738C4114.64 975.293 4125.38 994.824 4134.17 1015.33C4141.98 1032.91 4148.33 1052.93 4153.21 1075.39C4158.09 1097.85 4159.56 1120.8 4157.61 1144.24C4083.39 1146.19 4023.33 1147.66 3977.43 1148.63C3932.51 1149.61 3897.35 1150.1 3871.96 1150.1H3806.04H3756.24C3738.66 1150.1 3715.71 1150.59 3687.39 1151.56C3659.07 1152.54 3624.4 1154 3583.39 1155.96C3588.27 1195.02 3600.48 1225.29 3620.01 1246.78C3640.52 1267.29 3662 1282.91 3684.46 1293.65C3709.85 1305.37 3737.68 1312.21 3767.96 1314.16ZM3636.12 1050.49C3667.37 1052.44 3693.25 1053.91 3713.76 1054.88C3735.24 1055.86 3752.82 1056.84 3766.49 1057.81C3781.14 1058.79 3792.86 1059.28 3801.65 1059.28H3838.27C3862.68 1059.28 3908.09 1057.81 3974.5 1054.88C3971.57 1011.91 3962.29 979.199 3946.67 956.738C3932.02 934.277 3916.39 917.676 3899.79 906.934C3880.26 895.215 3858.78 888.379 3835.34 886.426C3771.86 887.402 3724.5 900.586 3693.25 925.977C3662.98 951.367 3643.93 992.871 3636.12 1050.49Z" fill="white"/>
<path d="M2197.53 1814.21C2229.76 1818.12 2259.05 1821.05 2285.42 1823C2310.81 1824.96 2332.79 1826.91 2351.34 1828.86C2372.82 1830.82 2391.87 1832.28 2408.47 1833.26C2426.05 1833.26 2448.51 1832.77 2475.85 1831.79C2499.29 1830.82 2529.07 1829.35 2565.21 1827.4C2601.34 1825.45 2645.77 1822.03 2698.51 1817.14C2673.12 1831.79 2652.12 1846.44 2635.52 1861.09C2619.89 1875.74 2607.69 1888.92 2598.9 1900.64C2588.16 1914.31 2580.34 1927.98 2575.46 1941.66C2572.53 1960.21 2573.51 1996.34 2578.39 2050.05C2580.34 2072.52 2583.27 2100.35 2587.18 2133.55C2592.06 2165.78 2597.92 2204.35 2604.76 2249.27C2612.57 2293.22 2621.85 2344 2632.59 2401.62C2644.31 2459.23 2657.49 2524.66 2672.14 2597.91C2691.67 2542.24 2707.79 2492.93 2720.48 2449.96C2733.18 2406.01 2743.92 2368.41 2752.71 2337.16C2762.47 2302.01 2770.77 2270.76 2777.61 2243.41C2784.45 2215.09 2792.75 2178.47 2802.51 2133.55C2810.32 2095.46 2820.58 2046.15 2833.27 1985.6C2845.97 1925.05 2861.59 1850.35 2880.15 1761.48L2932.88 1768.8C2937.77 1838.14 2942.65 1899.18 2947.53 1951.91C2953.39 2004.64 2958.27 2049.57 2962.18 2086.68C2966.09 2129.64 2969.99 2166.75 2973.9 2198C2977.8 2226.32 2983.66 2259.04 2991.48 2296.15C2998.31 2327.4 3007.1 2365.97 3017.84 2411.87C3028.59 2456.79 3042.75 2507.57 3060.32 2564.21C3077.9 2494.88 3093.53 2432.87 3107.2 2378.18C3121.85 2323.49 3134.05 2275.15 3143.82 2233.16C3154.56 2191.17 3163.35 2155.04 3170.19 2124.76C3178 2094.49 3184.35 2069.1 3189.23 2048.59C3199.97 1999.76 3206.32 1967.05 3208.27 1950.45C3207.3 1931.89 3202.9 1913.82 3195.09 1896.25C3188.25 1880.62 3177.51 1863.53 3162.86 1844.98C3148.21 1826.42 3126.73 1808.36 3098.41 1790.78C3157.98 1792.73 3206.32 1794.2 3243.43 1795.17C3281.52 1795.17 3311.79 1795.17 3334.25 1795.17H3392.84H3445.58C3465.11 1795.17 3490.5 1795.17 3521.75 1795.17C3553.98 1794.2 3594.99 1792.73 3644.8 1790.78C3601.83 1813.24 3567.16 1833.75 3540.79 1852.3C3514.43 1870.86 3493.92 1886.48 3479.27 1899.18C3461.69 1914.8 3449 1927.98 3441.18 1938.73C3433.37 1958.26 3420.68 2002.2 3403.1 2070.56C3395.29 2099.86 3386.5 2136.48 3376.73 2180.43C3366.96 2223.39 3355.25 2275.15 3341.57 2335.7C3328.88 2396.25 3314.23 2467.05 3297.63 2548.1C3281.03 2628.18 3262.47 2719.98 3241.96 2823.49L2988.55 2797.12L2880.15 2341.56C2863.55 2424.57 2850.36 2491.95 2840.6 2543.71C2830.83 2594.49 2823.51 2634.04 2818.62 2662.36C2812.77 2696.54 2809.35 2721.44 2808.37 2737.07C2807.39 2750.74 2806.42 2763.92 2805.44 2776.62C2804.46 2787.36 2803 2799.08 2801.05 2811.77C2800.07 2824.47 2798.61 2836.19 2796.65 2846.93H2537.38C2511.98 2735.6 2489.04 2637.46 2468.53 2552.5C2449 2466.56 2431.42 2391.36 2415.79 2326.91C2400.17 2262.46 2386.5 2207.77 2374.78 2162.85C2364.04 2117.93 2354.27 2080.33 2345.48 2050.05C2325.95 1979.74 2311.79 1936.29 2303 1919.68C2296.16 1911.87 2287.38 1902.59 2276.63 1891.85C2267.84 1883.06 2257.1 1872.32 2244.41 1859.62C2230.73 1845.95 2215.11 1830.82 2197.53 1814.21ZM3849.88 2187.75C3875.27 2187.75 3901.63 2192.63 3928.98 2202.4C3956.32 2211.19 3982.69 2222.91 4008.08 2237.55C4033.47 2251.23 4056.42 2266.36 4076.93 2282.96C4098.41 2298.59 4115.99 2313.73 4129.66 2328.38C4154.07 2354.74 4170.68 2390.39 4179.46 2435.31C4189.23 2479.25 4191.18 2524.66 4185.32 2571.54C4179.46 2617.44 4165.79 2660.89 4144.31 2701.91C4122.82 2742.93 4093.04 2773.2 4054.95 2792.73C4027.61 2806.4 4000.75 2817.14 3974.39 2824.96C3948.02 2832.77 3922.63 2838.63 3898.21 2842.54C3873.8 2846.44 3850.85 2848.39 3829.37 2848.39C3807.88 2848.39 3789.33 2847.91 3773.7 2846.93C3744.41 2844.98 3713.64 2834.72 3681.42 2816.17C3650.17 2797.61 3620.38 2774.66 3592.06 2747.32C3564.72 2719.98 3541.28 2690.19 3521.75 2657.96C3502.22 2624.76 3490.5 2593.51 3486.59 2564.21C3480.73 2524.18 3479.76 2482.18 3483.66 2438.24C3487.57 2394.29 3501.73 2353.77 3526.14 2316.66C3551.54 2279.55 3589.62 2248.79 3640.4 2224.37C3692.16 2199.96 3761.98 2187.75 3849.88 2187.75ZM3801.54 2756.11C3812.28 2758.06 3826.93 2755.62 3845.48 2748.79C3864.04 2740.97 3882.1 2728.77 3899.68 2712.16C3918.23 2695.56 3934.35 2674.57 3948.02 2649.18C3962.67 2622.81 3971.46 2591.07 3974.39 2553.96C3977.32 2517.83 3977.32 2484.62 3974.39 2454.35C3972.43 2424.08 3968.04 2397.71 3961.2 2375.25C3954.37 2351.81 3946.55 2332.77 3937.77 2318.12C3928.98 2303.47 3919.7 2293.22 3909.93 2287.36C3893.33 2278.57 3873.31 2271.73 3849.88 2266.85C3826.44 2260.99 3806.42 2261.97 3789.82 2269.78C3782 2273.69 3772.24 2281.99 3760.52 2294.68C3748.8 2307.38 3737.08 2323.49 3725.36 2343.02C3713.64 2361.58 3702.9 2383.06 3693.14 2407.48C3684.35 2431.89 3678 2457.28 3674.09 2483.65C3670.19 2510.02 3669.21 2538.34 3671.16 2568.61C3674.09 2598.88 3680.44 2627.69 3690.21 2655.04C3699.97 2681.4 3713.64 2704.35 3731.22 2723.88C3749.78 2742.44 3773.21 2753.18 3801.54 2756.11ZM4240.99 2142.34C4259.54 2143.32 4276.14 2143.8 4290.79 2143.8C4306.42 2142.83 4319.6 2141.85 4330.34 2140.88C4343.04 2139.9 4354.27 2138.92 4364.04 2137.95C4378.68 2135.99 4393.82 2133.55 4409.45 2130.62C4423.12 2128.67 4437.28 2126.23 4451.93 2123.3C4467.55 2119.39 4482.69 2115 4497.34 2110.11C4491.48 2124.76 4486.59 2137.46 4482.69 2148.2C4478.78 2158.94 4475.85 2168.22 4473.9 2176.03C4470.97 2184.82 4469.5 2192.14 4469.5 2198C4468.53 2204.84 4468.04 2213.14 4468.04 2222.91C4467.06 2239.51 4467.06 2266.36 4468.04 2303.47C4518.82 2259.53 4561.3 2225.35 4595.48 2200.93C4630.64 2176.52 4658.47 2157.48 4678.98 2143.8C4703.39 2128.18 4722.43 2117.93 4736.11 2113.04C4772.24 2107.18 4803.98 2115.48 4831.32 2137.95C4843.04 2147.71 4854.27 2160.89 4865.01 2177.5C4875.75 2193.12 4885.03 2214.12 4892.84 2240.48C4900.66 2266.85 4906.52 2298.59 4910.42 2335.7C4914.33 2371.83 4914.82 2415.29 4911.89 2466.07C4891.38 2468.02 4872.82 2469.98 4856.22 2471.93C4840.6 2473.88 4827.41 2475.35 4816.67 2476.32C4803.98 2478.28 4792.26 2479.25 4781.52 2479.25L4741.96 2483.65C4728.29 2485.6 4711.2 2487.55 4690.7 2489.51C4671.16 2490.48 4647.24 2492.44 4618.92 2495.37C4659.93 2462.16 4686.3 2433.36 4698.02 2408.94C4710.71 2383.55 4716.09 2362.55 4714.13 2345.95C4712.18 2327.4 4703.39 2311.29 4687.77 2297.61C4669.21 2286.87 4649.19 2282.96 4627.71 2285.89C4609.15 2287.85 4587.67 2296.15 4563.25 2310.8C4538.84 2325.45 4512.96 2352.79 4485.62 2392.83C4487.57 2455.33 4489.52 2507.09 4491.48 2548.1C4494.41 2589.12 4496.85 2622.32 4498.8 2647.71C4501.73 2677.01 4504.17 2699.96 4506.12 2716.56C4509.05 2731.21 4514.91 2746.83 4523.7 2763.43C4530.54 2777.11 4540.3 2792.24 4553 2808.84C4565.7 2825.45 4582.3 2842.05 4602.8 2858.65C4559.84 2856.7 4524.68 2856.7 4497.34 2858.65C4480.73 2859.62 4466.09 2860.6 4453.39 2861.58C4439.72 2863.53 4425.07 2865.48 4409.45 2867.44C4395.77 2869.39 4379.66 2871.34 4361.11 2873.3C4343.53 2876.23 4324 2879.16 4302.51 2882.09C4310.32 2871.34 4316.67 2858.65 4321.55 2844C4326.44 2830.33 4330.34 2817.14 4333.27 2804.45C4337.18 2789.8 4340.11 2774.66 4342.06 2759.04C4343.04 2745.37 4343.53 2724.86 4343.53 2697.52C4344.5 2670.17 4344.02 2639.41 4342.06 2605.23C4341.09 2570.07 4339.62 2533.94 4337.67 2496.83C4335.71 2458.75 4333.27 2423.1 4330.34 2389.9C4327.41 2356.7 4324 2327.89 4320.09 2303.47C4317.16 2278.08 4313.74 2260.5 4309.84 2250.74C4304.95 2239.02 4299.09 2227.3 4292.26 2215.58C4286.4 2204.84 4279.07 2193.61 4270.29 2181.89C4261.5 2169.2 4251.73 2156.01 4240.99 2142.34ZM4958.76 1787.85C4969.5 1792.73 4982.2 1796.15 4996.85 1798.1C5012.47 1800.05 5027.12 1801.03 5040.79 1801.03C5057.39 1801.03 5074.48 1800.54 5092.06 1799.57C5109.64 1798.59 5131.12 1796.64 5156.52 1793.71C5177.02 1791.75 5202.41 1789.31 5232.69 1786.38C5262.96 1783.45 5296.65 1779.55 5333.76 1774.66C5320.09 1781.5 5308.37 1788.82 5298.61 1796.64C5288.84 1804.45 5280.54 1812.26 5273.7 1820.07C5265.89 1828.86 5259.54 1837.65 5254.66 1846.44C5247.82 1858.16 5238.55 1878.67 5226.83 1907.96C5216.09 1936.29 5204.86 1968.02 5193.14 2003.18C5182.39 2038.34 5172.63 2073.98 5163.84 2110.11C5156.03 2146.25 5151.63 2177.01 5150.66 2202.4C5149.68 2223.88 5148.7 2248.3 5147.73 2275.64C5146.75 2299.08 5145.77 2327.89 5144.8 2362.07C5143.82 2396.25 5142.84 2435.31 5141.87 2479.25C5212.18 2428.47 5266.38 2387.95 5304.46 2357.67C5342.55 2326.42 5370.38 2302.5 5387.96 2285.89C5408.47 2267.34 5420.68 2254.16 5424.58 2246.34C5423.61 2240.48 5421.16 2234.14 5417.26 2227.3C5412.38 2221.44 5405.54 2214.61 5396.75 2206.79C5387.96 2198.98 5374.78 2190.19 5357.2 2180.43C5382.59 2183.36 5404.56 2185.31 5423.12 2186.29C5442.65 2187.26 5459.25 2188.24 5472.92 2189.21C5488.55 2190.19 5502.22 2190.19 5513.94 2189.21C5526.63 2189.21 5542.26 2188.73 5560.81 2187.75C5593.04 2186.77 5642.84 2185.31 5710.23 2183.36C5644.8 2217.54 5593.04 2246.83 5554.95 2271.25C5533.47 2284.92 5514.43 2297.61 5497.82 2309.33C5481.22 2322.03 5464.13 2335.21 5446.55 2348.88C5430.93 2360.6 5412.86 2374.27 5392.36 2389.9C5372.82 2405.52 5353.29 2422.12 5333.76 2439.7C5367.94 2495.37 5397.73 2541.27 5423.12 2577.4C5449.48 2613.53 5471.46 2642.83 5489.04 2665.29C5509.54 2691.66 5527.61 2712.65 5543.23 2728.28C5558.86 2742.93 5579.37 2759.53 5604.76 2778.08C5626.24 2794.68 5654.07 2814.21 5688.25 2836.68C5723.41 2858.16 5765.89 2883.06 5815.7 2911.38C5790.3 2906.5 5765.89 2903.08 5742.45 2901.13C5719.02 2900.15 5699 2900.15 5682.39 2901.13C5661.89 2902.11 5643.33 2904.06 5626.73 2906.99C5609.15 2910.89 5589.62 2915.78 5568.14 2921.64C5549.58 2926.52 5527.61 2932.87 5502.22 2940.68C5477.8 2949.47 5450.95 2960.7 5421.65 2974.37C5440.21 2960.7 5453.88 2947.52 5462.67 2934.82C5472.43 2923.1 5479.27 2913.34 5483.18 2905.52C5487.08 2895.76 5488.55 2887.46 5487.57 2880.62C5482.69 2870.86 5471.46 2850.84 5453.88 2820.56C5437.28 2795.17 5412.86 2758.06 5380.64 2709.23C5348.41 2660.41 5302.51 2594 5242.94 2510.02C5240.01 2510.99 5235.13 2513.92 5228.29 2518.8C5222.43 2523.69 5213.64 2530.52 5201.93 2539.31C5190.21 2547.12 5174.58 2558.84 5155.05 2574.47L5194.6 2830.82C5185.81 2834.72 5176.05 2838.14 5165.3 2841.07C5155.54 2844 5146.26 2846.44 5137.47 2848.39C5126.73 2851.32 5115.99 2853.28 5105.25 2854.25C5094.5 2855.23 5081.81 2857.18 5067.16 2860.11C5054.46 2862.07 5039.33 2864.51 5021.75 2867.44C5004.17 2871.34 4984.15 2875.74 4961.69 2880.62C4974.39 2871.83 4984.64 2861.58 4992.45 2849.86C5000.27 2839.12 5006.61 2828.86 5011.5 2819.1C5016.38 2808.36 5020.77 2797.12 5024.68 2785.41C5026.63 2775.64 5028.59 2750.25 5030.54 2709.23C5033.47 2668.22 5035.91 2619.39 5037.86 2562.75C5039.82 2505.13 5041.28 2443.61 5042.26 2378.18C5044.21 2312.75 5045.19 2251.23 5045.19 2193.61C5045.19 2135.02 5044.7 2084.23 5043.72 2041.27C5042.75 1997.32 5040.79 1969 5037.86 1956.3C5032.98 1940.68 5027.12 1924.08 5020.29 1906.5C5014.43 1890.88 5006.12 1873.3 4995.38 1853.77C4985.62 1833.26 4973.41 1811.29 4958.76 1787.85Z" fill="white"/>
</svg>
